M48
; DRILL file {KiCad 8.0.8} date 2026-04-02T21:28:43-0400
; FORMAT={-:-/ absolute / inch / decimal}
; #@! TF.CreationDate,2026-04-02T21:28:43-04:00
; #@! TF.GenerationSoftware,Kicad,Pcbnew,8.0.8
; #@! TF.FileFunction,Plated,1,2,PTH
FMAT,2
INCH
; #@! TA.AperFunction,Plated,PTH,ComponentDrill
T1C0.0394
; #@! TA.AperFunction,Plated,PTH,ComponentDrill
T2C0.0437
; #@! TA.AperFunction,Plated,PTH,ComponentDrill
T3C0.0800
%
G90
G05
T1
X5.8339Y-2.9331
X5.8339Y-3.0331
X5.8339Y-3.1331
X5.8339Y-3.2331
X5.8339Y-3.3331
X5.8339Y-3.4331
X5.8339Y-3.5331
X5.8339Y-3.6331
X5.8339Y-3.7331
X5.8339Y-3.8331
X5.8339Y-3.9331
X5.8339Y-4.0331
X6.6339Y-2.9331
X6.6339Y-3.0331
X6.6339Y-3.1331
X6.6339Y-3.2331
X6.6339Y-3.3331
X6.6339Y-3.4331
X6.6339Y-3.5331
X6.6339Y-3.6331
X6.6339Y-3.7331
X6.6339Y-3.8331
X6.6339Y-3.9331
X6.6339Y-4.0331
X6.6339Y-4.1331
X6.6339Y-4.2331
X6.6339Y-4.3331
X6.6339Y-4.4331
T2
X5.9303Y-4.853
X6.0303Y-4.853
X6.1303Y-4.853
X6.2303Y-4.853
X6.3303Y-4.853
X6.4303Y-4.853
X6.5303Y-4.853
T3
X5.9803Y-5.403
X6.4803Y-5.403
M30
