%TF.GenerationSoftware,KiCad,Pcbnew,8.0.8*%
%TF.CreationDate,2026-04-02T21:28:19-04:00*%
%TF.ProjectId,FELT,46454c54-2e6b-4696-9361-645f70636258,rev?*%
%TF.SameCoordinates,Original*%
%TF.FileFunction,Copper,L2,Bot*%
%TF.FilePolarity,Positive*%
%FSLAX46Y46*%
G04 Gerber Fmt 4.6, Leading zero omitted, Abs format (unit mm)*
G04 Created by KiCad (PCBNEW 8.0.8) date 2026-04-02 21:28:19*
%MOMM*%
%LPD*%
G01*
G04 APERTURE LIST*
G04 Aperture macros list*
%AMRoundRect*
0 Rectangle with rounded corners*
0 $1 Rounding radius*
0 $2 $3 $4 $5 $6 $7 $8 $9 X,Y pos of 4 corners*
0 Add a 4 corners polygon primitive as box body*
4,1,4,$2,$3,$4,$5,$6,$7,$8,$9,$2,$3,0*
0 Add four circle primitives for the rounded corners*
1,1,$1+$1,$2,$3*
1,1,$1+$1,$4,$5*
1,1,$1+$1,$6,$7*
1,1,$1+$1,$8,$9*
0 Add four rect primitives between the rounded corners*
20,1,$1+$1,$2,$3,$4,$5,0*
20,1,$1+$1,$4,$5,$6,$7,0*
20,1,$1+$1,$6,$7,$8,$9,0*
20,1,$1+$1,$8,$9,$2,$3,0*%
G04 Aperture macros list end*
%TA.AperFunction,ComponentPad*%
%ADD10R,1.665000X1.665000*%
%TD*%
%TA.AperFunction,ComponentPad*%
%ADD11C,1.665000*%
%TD*%
%TA.AperFunction,ComponentPad*%
%ADD12C,3.048000*%
%TD*%
%TA.AperFunction,ComponentPad*%
%ADD13RoundRect,0.250000X1.050000X0.550000X-1.050000X0.550000X-1.050000X-0.550000X1.050000X-0.550000X0*%
%TD*%
%TA.AperFunction,ComponentPad*%
%ADD14O,2.600000X1.600000*%
%TD*%
%TA.AperFunction,Conductor*%
%ADD15C,0.500000*%
%TD*%
G04 APERTURE END LIST*
D10*
%TO.P,IC1,1,VIN*%
%TO.N,+3V3*%
X165870000Y-123265000D03*
D11*
%TO.P,IC1,2,3VA*%
%TO.N,unconnected-(IC1-3VA-Pad2)*%
X163330000Y-123265000D03*
%TO.P,IC1,3,GND*%
%TO.N,GND*%
X160790000Y-123265000D03*
%TO.P,IC1,4,SCK*%
%TO.N,/SCL*%
X158250000Y-123265000D03*
%TO.P,IC1,5,SDO*%
%TO.N,unconnected-(IC1-SDO-Pad5)*%
X155710000Y-123265000D03*
%TO.P,IC1,6,SDI*%
%TO.N,/SDA*%
X153170000Y-123265000D03*
%TO.P,IC1,7,CS*%
%TO.N,unconnected-(IC1-CS-Pad7)*%
X150630000Y-123265000D03*
D12*
%TO.P,IC1,MH1,MH1*%
%TO.N,unconnected-(IC1-PadMH1)*%
X164600000Y-137235000D03*
%TO.P,IC1,MH2,MH2*%
%TO.N,unconnected-(IC1-PadMH2)*%
X151900000Y-137235000D03*
%TD*%
D13*
%TO.P,A1,1,~{RESET}*%
%TO.N,unconnected-(A1-~{RESET}-Pad1)*%
X168200000Y-112600000D03*
D14*
%TO.P,A1,2,3V3*%
%TO.N,+3V3*%
X168200000Y-110060000D03*
%TO.P,A1,3,AREF*%
%TO.N,unconnected-(A1-AREF-Pad3)*%
X168200000Y-107520000D03*
%TO.P,A1,4,GND*%
%TO.N,GND*%
X168200000Y-104980000D03*
%TO.P,A1,5,DAC0/A0*%
%TO.N,unconnected-(A1-DAC0{slash}A0-Pad5)*%
X168200000Y-102440000D03*
%TO.P,A1,6,A1*%
%TO.N,unconnected-(A1-A1-Pad6)*%
X168200000Y-99900000D03*
%TO.P,A1,7,A2*%
%TO.N,unconnected-(A1-A2-Pad7)*%
X168200000Y-97360000D03*
%TO.P,A1,8,A3*%
%TO.N,unconnected-(A1-A3-Pad8)*%
X168200000Y-94820000D03*
%TO.P,A1,9,A4*%
%TO.N,unconnected-(A1-A4-Pad9)*%
X168200000Y-92280000D03*
%TO.P,A1,10,A5*%
%TO.N,unconnected-(A1-A5-Pad10)*%
X168200000Y-89740000D03*
%TO.P,A1,11,SCK/D24*%
%TO.N,unconnected-(A1-SCK{slash}D24-Pad11)*%
X168200000Y-87200000D03*
%TO.P,A1,12,MOSI/D23*%
%TO.N,unconnected-(A1-MOSI{slash}D23-Pad12)*%
X168200000Y-84660000D03*
%TO.P,A1,13,MISO/D22*%
%TO.N,unconnected-(A1-MISO{slash}D22-Pad13)*%
X168200000Y-82120000D03*
%TO.P,A1,14,RX/D0*%
%TO.N,unconnected-(A1-RX{slash}D0-Pad14)*%
X168200000Y-79580000D03*
%TO.P,A1,15,TX/D1*%
%TO.N,unconnected-(A1-TX{slash}D1-Pad15)*%
X168200000Y-77040000D03*
%TO.P,A1,16,GND*%
%TO.N,GND*%
X168200000Y-74500000D03*
%TO.P,A1,17,SDA/D20*%
%TO.N,/SDA*%
X148480000Y-74500000D03*
%TO.P,A1,18,SCL/D21*%
%TO.N,/SCL*%
X148480000Y-77040000D03*
%TO.P,A1,19,D5*%
%TO.N,unconnected-(A1-D5-Pad19)*%
X148480000Y-79580000D03*
%TO.P,A1,20,D6*%
%TO.N,unconnected-(A1-D6-Pad20)*%
X148480000Y-82120000D03*
%TO.P,A1,21,D9*%
%TO.N,unconnected-(A1-D9-Pad21)*%
X148480000Y-84660000D03*
%TO.P,A1,22,D10*%
%TO.N,unconnected-(A1-D10-Pad22)*%
X148480000Y-87200000D03*
%TO.P,A1,23,D11*%
%TO.N,unconnected-(A1-D11-Pad23)*%
X148480000Y-89740000D03*
%TO.P,A1,24,D12*%
%TO.N,unconnected-(A1-D12-Pad24)*%
X148480000Y-92280000D03*
%TO.P,A1,25,D13*%
%TO.N,unconnected-(A1-D13-Pad25)*%
X148480000Y-94820000D03*
%TO.P,A1,26,USB*%
%TO.N,unconnected-(A1-USB-Pad26)*%
X148480000Y-97360000D03*
%TO.P,A1,27,EN*%
%TO.N,unconnected-(A1-EN-Pad27)*%
X148480000Y-99900000D03*
%TO.P,A1,28,VBAT*%
%TO.N,unconnected-(A1-VBAT-Pad28)*%
X148480000Y-102440000D03*
%TD*%
D15*
%TO.N,/SCL*%
X147810000Y-76940000D02*
X148180000Y-76940000D01*
%TD*%
%TA.AperFunction,Conductor*%
%TO.N,GND*%
G36*
X173253032Y-64000648D02*
G01*
X173586929Y-64017052D01*
X173599037Y-64018245D01*
X173702146Y-64033539D01*
X173926699Y-64066849D01*
X173938617Y-64069219D01*
X174259951Y-64149709D01*
X174271588Y-64153240D01*
X174342806Y-64178722D01*
X174583467Y-64264832D01*
X174594688Y-64269479D01*
X174894163Y-64411120D01*
X174904871Y-64416844D01*
X175188988Y-64587137D01*
X175199106Y-64593897D01*
X175465170Y-64791224D01*
X175474576Y-64798944D01*
X175720013Y-65021395D01*
X175728604Y-65029986D01*
X175915755Y-65236475D01*
X175951055Y-65275423D01*
X175958775Y-65284829D01*
X176156102Y-65550893D01*
X176162862Y-65561011D01*
X176291776Y-65776092D01*
X176333148Y-65845116D01*
X176338883Y-65855844D01*
X176373076Y-65928140D01*
X176480514Y-66155297D01*
X176485170Y-66166540D01*
X176596759Y-66478411D01*
X176600292Y-66490055D01*
X176680777Y-66811369D01*
X176683151Y-66823305D01*
X176731754Y-67150962D01*
X176732947Y-67163071D01*
X176749351Y-67496966D01*
X176749500Y-67503051D01*
X176749500Y-138496948D01*
X176749351Y-138503033D01*
X176732947Y-138836928D01*
X176731754Y-138849037D01*
X176683151Y-139176694D01*
X176680777Y-139188630D01*
X176600292Y-139509944D01*
X176596759Y-139521588D01*
X176485170Y-139833459D01*
X176480514Y-139844702D01*
X176338885Y-140144151D01*
X176333148Y-140154883D01*
X176162862Y-140438988D01*
X176156102Y-140449106D01*
X175958775Y-140715170D01*
X175951055Y-140724576D01*
X175728611Y-140970006D01*
X175720006Y-140978611D01*
X175474576Y-141201055D01*
X175465170Y-141208775D01*
X175199106Y-141406102D01*
X175188988Y-141412862D01*
X174904883Y-141583148D01*
X174894151Y-141588885D01*
X174594702Y-141730514D01*
X174583459Y-141735170D01*
X174271588Y-141846759D01*
X174259944Y-141850292D01*
X173938630Y-141930777D01*
X173926694Y-141933151D01*
X173599037Y-141981754D01*
X173586928Y-141982947D01*
X173271989Y-141998419D01*
X173253031Y-141999351D01*
X173246949Y-141999500D01*
X143253051Y-141999500D01*
X143246968Y-141999351D01*
X143226900Y-141998365D01*
X142913071Y-141982947D01*
X142900962Y-141981754D01*
X142573305Y-141933151D01*
X142561369Y-141930777D01*
X142240055Y-141850292D01*
X142228411Y-141846759D01*
X141916540Y-141735170D01*
X141905301Y-141730515D01*
X141605844Y-141588883D01*
X141595121Y-141583150D01*
X141311011Y-141412862D01*
X141300893Y-141406102D01*
X141034829Y-141208775D01*
X141025423Y-141201055D01*
X140986475Y-141165755D01*
X140779986Y-140978604D01*
X140771395Y-140970013D01*
X140548944Y-140724576D01*
X140541224Y-140715170D01*
X140491702Y-140648397D01*
X140343895Y-140449103D01*
X140337137Y-140438988D01*
X140166844Y-140154871D01*
X140161120Y-140144163D01*
X140019479Y-139844688D01*
X140014829Y-139833459D01*
X139903240Y-139521588D01*
X139899707Y-139509944D01*
X139870772Y-139394428D01*
X139819219Y-139188617D01*
X139816848Y-139176694D01*
X139768245Y-138849037D01*
X139767052Y-138836927D01*
X139756340Y-138618872D01*
X140999500Y-138618872D01*
X140999500Y-138881127D01*
X141019986Y-139036724D01*
X141033730Y-139141116D01*
X141055346Y-139221787D01*
X141101602Y-139394418D01*
X141101605Y-139394428D01*
X141201953Y-139636690D01*
X141201958Y-139636700D01*
X141333075Y-139863803D01*
X141492718Y-140071851D01*
X141492726Y-140071860D01*
X141678140Y-140257274D01*
X141678148Y-140257281D01*
X141886196Y-140416924D01*
X142113299Y-140548041D01*
X142113309Y-140548046D01*
X142355571Y-140648394D01*
X142355581Y-140648398D01*
X142608884Y-140716270D01*
X142868880Y-140750500D01*
X142868887Y-140750500D01*
X143131113Y-140750500D01*
X143131120Y-140750500D01*
X143391116Y-140716270D01*
X143644419Y-140648398D01*
X143886697Y-140548043D01*
X144113803Y-140416924D01*
X144321851Y-140257282D01*
X144321855Y-140257277D01*
X144321860Y-140257274D01*
X144507274Y-140071860D01*
X144507277Y-140071855D01*
X144507282Y-140071851D01*
X144666924Y-139863803D01*
X144798043Y-139636697D01*
X144898398Y-139394419D01*
X144966270Y-139141116D01*
X145000500Y-138881120D01*
X145000500Y-138618880D01*
X144966270Y-138358884D01*
X144898398Y-138105581D01*
X144872656Y-138043435D01*
X144798046Y-137863309D01*
X144798041Y-137863299D01*
X144666924Y-137636196D01*
X144507281Y-137428148D01*
X144507274Y-137428140D01*
X144321860Y-137242726D01*
X144321851Y-137242718D01*
X144311793Y-137235000D01*
X149870769Y-137235000D01*
X149889668Y-137511314D01*
X149889669Y-137511316D01*
X149946014Y-137782469D01*
X149946019Y-137782485D01*
X150038760Y-138043435D01*
X150038763Y-138043441D01*
X150038764Y-138043444D01*
X150038766Y-138043448D01*
X150166186Y-138289356D01*
X150325903Y-138515623D01*
X150514942Y-138718035D01*
X150729782Y-138892821D01*
X150729784Y-138892822D01*
X150729785Y-138892823D01*
X150966423Y-139036725D01*
X151139917Y-139112083D01*
X151220452Y-139147065D01*
X151487141Y-139221788D01*
X151728364Y-139254942D01*
X151761519Y-139259500D01*
X151761520Y-139259500D01*
X152038481Y-139259500D01*
X152068061Y-139255434D01*
X152312859Y-139221788D01*
X152579548Y-139147065D01*
X152833578Y-139036724D01*
X153070218Y-138892821D01*
X153285058Y-138718035D01*
X153474097Y-138515623D01*
X153633814Y-138289356D01*
X153761234Y-138043448D01*
X153853982Y-137782480D01*
X153853982Y-137782475D01*
X153853985Y-137782469D01*
X153884973Y-137633343D01*
X153910331Y-137511314D01*
X153929231Y-137235000D01*
X162570769Y-137235000D01*
X162589668Y-137511314D01*
X162589669Y-137511316D01*
X162646014Y-137782469D01*
X162646019Y-137782485D01*
X162738760Y-138043435D01*
X162738763Y-138043441D01*
X162738764Y-138043444D01*
X162738766Y-138043448D01*
X162866186Y-138289356D01*
X163025903Y-138515623D01*
X163214942Y-138718035D01*
X163429782Y-138892821D01*
X163429784Y-138892822D01*
X163429785Y-138892823D01*
X163666423Y-139036725D01*
X163839917Y-139112083D01*
X163920452Y-139147065D01*
X164187141Y-139221788D01*
X164428364Y-139254942D01*
X164461519Y-139259500D01*
X164461520Y-139259500D01*
X164738481Y-139259500D01*
X164768061Y-139255434D01*
X165012859Y-139221788D01*
X165279548Y-139147065D01*
X165533578Y-139036724D01*
X165770218Y-138892821D01*
X165985058Y-138718035D01*
X166077669Y-138618872D01*
X171499500Y-138618872D01*
X171499500Y-138881127D01*
X171519986Y-139036724D01*
X171533730Y-139141116D01*
X171555346Y-139221787D01*
X171601602Y-139394418D01*
X171601605Y-139394428D01*
X171701953Y-139636690D01*
X171701958Y-139636700D01*
X171833075Y-139863803D01*
X171992718Y-140071851D01*
X171992726Y-140071860D01*
X172178140Y-140257274D01*
X172178148Y-140257281D01*
X172386196Y-140416924D01*
X172613299Y-140548041D01*
X172613309Y-140548046D01*
X172855571Y-140648394D01*
X172855581Y-140648398D01*
X173108884Y-140716270D01*
X173368880Y-140750500D01*
X173368887Y-140750500D01*
X173631113Y-140750500D01*
X173631120Y-140750500D01*
X173891116Y-140716270D01*
X174144419Y-140648398D01*
X174386697Y-140548043D01*
X174613803Y-140416924D01*
X174821851Y-140257282D01*
X174821855Y-140257277D01*
X174821860Y-140257274D01*
X175007274Y-140071860D01*
X175007277Y-140071855D01*
X175007282Y-140071851D01*
X175166924Y-139863803D01*
X175298043Y-139636697D01*
X175398398Y-139394419D01*
X175466270Y-139141116D01*
X175500500Y-138881120D01*
X175500500Y-138618880D01*
X175466270Y-138358884D01*
X175398398Y-138105581D01*
X175372656Y-138043435D01*
X175298046Y-137863309D01*
X175298041Y-137863299D01*
X175166924Y-137636196D01*
X175007281Y-137428148D01*
X175007274Y-137428140D01*
X174821860Y-137242726D01*
X174821851Y-137242718D01*
X174613803Y-137083075D01*
X174386700Y-136951958D01*
X174386690Y-136951953D01*
X174144428Y-136851605D01*
X174144421Y-136851603D01*
X174144419Y-136851602D01*
X173891116Y-136783730D01*
X173833339Y-136776123D01*
X173631127Y-136749500D01*
X173631120Y-136749500D01*
X173368880Y-136749500D01*
X173368872Y-136749500D01*
X173137772Y-136779926D01*
X173108884Y-136783730D01*
X172855581Y-136851602D01*
X172855571Y-136851605D01*
X172613309Y-136951953D01*
X172613299Y-136951958D01*
X172386196Y-137083075D01*
X172178148Y-137242718D01*
X171992718Y-137428148D01*
X171833075Y-137636196D01*
X171701958Y-137863299D01*
X171701953Y-137863309D01*
X171601605Y-138105571D01*
X171601602Y-138105581D01*
X171533730Y-138358885D01*
X171499500Y-138618872D01*
X166077669Y-138618872D01*
X166174097Y-138515623D01*
X166333814Y-138289356D01*
X166461234Y-138043448D01*
X166553982Y-137782480D01*
X166553982Y-137782475D01*
X166553985Y-137782469D01*
X166584973Y-137633343D01*
X166610331Y-137511314D01*
X166629231Y-137235000D01*
X166610331Y-136958686D01*
X166566862Y-136749500D01*
X166553985Y-136687530D01*
X166553980Y-136687514D01*
X166461239Y-136426564D01*
X166461236Y-136426558D01*
X166461234Y-136426552D01*
X166333814Y-136180644D01*
X166174097Y-135954377D01*
X165985058Y-135751965D01*
X165770218Y-135577179D01*
X165770216Y-135577178D01*
X165770214Y-135577176D01*
X165533576Y-135433274D01*
X165279551Y-135322936D01*
X165279549Y-135322935D01*
X165279548Y-135322935D01*
X165203673Y-135301676D01*
X165012864Y-135248213D01*
X165012860Y-135248212D01*
X165012859Y-135248212D01*
X164875669Y-135229356D01*
X164738481Y-135210500D01*
X164738480Y-135210500D01*
X164461520Y-135210500D01*
X164461519Y-135210500D01*
X164187141Y-135248212D01*
X164187135Y-135248213D01*
X163920448Y-135322936D01*
X163666423Y-135433274D01*
X163429785Y-135577176D01*
X163214941Y-135751965D01*
X163025907Y-135954372D01*
X162866186Y-136180643D01*
X162738763Y-136426558D01*
X162738760Y-136426564D01*
X162646019Y-136687514D01*
X162646014Y-136687530D01*
X162589669Y-136958683D01*
X162589668Y-136958685D01*
X162570769Y-137235000D01*
X153929231Y-137235000D01*
X153910331Y-136958686D01*
X153866862Y-136749500D01*
X153853985Y-136687530D01*
X153853980Y-136687514D01*
X153761239Y-136426564D01*
X153761236Y-136426558D01*
X153761234Y-136426552D01*
X153633814Y-136180644D01*
X153474097Y-135954377D01*
X153285058Y-135751965D01*
X153070218Y-135577179D01*
X153070216Y-135577178D01*
X153070214Y-135577176D01*
X152833576Y-135433274D01*
X152579551Y-135322936D01*
X152579549Y-135322935D01*
X152579548Y-135322935D01*
X152503673Y-135301676D01*
X152312864Y-135248213D01*
X152312860Y-135248212D01*
X152312859Y-135248212D01*
X152175669Y-135229356D01*
X152038481Y-135210500D01*
X152038480Y-135210500D01*
X151761520Y-135210500D01*
X151761519Y-135210500D01*
X151487141Y-135248212D01*
X151487135Y-135248213D01*
X151220448Y-135322936D01*
X150966423Y-135433274D01*
X150729785Y-135577176D01*
X150514941Y-135751965D01*
X150325907Y-135954372D01*
X150166186Y-136180643D01*
X150038763Y-136426558D01*
X150038760Y-136426564D01*
X149946019Y-136687514D01*
X149946014Y-136687530D01*
X149889669Y-136958683D01*
X149889668Y-136958685D01*
X149870769Y-137235000D01*
X144311793Y-137235000D01*
X144113803Y-137083075D01*
X143886700Y-136951958D01*
X143886690Y-136951953D01*
X143644428Y-136851605D01*
X143644421Y-136851603D01*
X143644419Y-136851602D01*
X143391116Y-136783730D01*
X143333339Y-136776123D01*
X143131127Y-136749500D01*
X143131120Y-136749500D01*
X142868880Y-136749500D01*
X142868872Y-136749500D01*
X142637772Y-136779926D01*
X142608884Y-136783730D01*
X142355581Y-136851602D01*
X142355571Y-136851605D01*
X142113309Y-136951953D01*
X142113299Y-136951958D01*
X141886196Y-137083075D01*
X141678148Y-137242718D01*
X141492718Y-137428148D01*
X141333075Y-137636196D01*
X141201958Y-137863299D01*
X141201953Y-137863309D01*
X141101605Y-138105571D01*
X141101602Y-138105581D01*
X141033730Y-138358885D01*
X140999500Y-138618872D01*
X139756340Y-138618872D01*
X139750649Y-138503032D01*
X139750500Y-138496948D01*
X139750500Y-123264999D01*
X149291908Y-123264999D01*
X149291908Y-123265000D01*
X149312236Y-123497352D01*
X149312238Y-123497362D01*
X149372602Y-123722646D01*
X149372607Y-123722660D01*
X149469393Y-123930219D01*
X149471178Y-123934046D01*
X149604962Y-124125109D01*
X149769891Y-124290038D01*
X149960954Y-124423822D01*
X150027915Y-124455046D01*
X150172339Y-124522392D01*
X150172341Y-124522392D01*
X150172346Y-124522395D01*
X150397643Y-124582763D01*
X150583528Y-124599026D01*
X150629999Y-124603092D01*
X150630000Y-124603092D01*
X150630001Y-124603092D01*
X150668726Y-124599703D01*
X150862357Y-124582763D01*
X151087654Y-124522395D01*
X151299046Y-124423822D01*
X151490109Y-124290038D01*
X151655038Y-124125109D01*
X151788822Y-123934046D01*
X151788826Y-123934035D01*
X151791527Y-123929360D01*
X151793179Y-123930313D01*
X151833784Y-123884192D01*
X151900976Y-123865036D01*
X151967859Y-123885248D01*
X152006879Y-123930280D01*
X152008473Y-123929360D01*
X152011176Y-123934042D01*
X152011178Y-123934046D01*
X152144962Y-124125109D01*
X152309891Y-124290038D01*
X152500954Y-124423822D01*
X152567915Y-124455046D01*
X152712339Y-124522392D01*
X152712341Y-124522392D01*
X152712346Y-124522395D01*
X152937643Y-124582763D01*
X153123528Y-124599026D01*
X153169999Y-124603092D01*
X153170000Y-124603092D01*
X153170001Y-124603092D01*
X153208726Y-124599703D01*
X153402357Y-124582763D01*
X153627654Y-124522395D01*
X153839046Y-124423822D01*
X154030109Y-124290038D01*
X154195038Y-124125109D01*
X154328822Y-123934046D01*
X154328826Y-123934035D01*
X154331527Y-123929360D01*
X154333179Y-123930313D01*
X154373784Y-123884192D01*
X154440976Y-123865036D01*
X154507859Y-123885248D01*
X154546879Y-123930280D01*
X154548473Y-123929360D01*
X154551176Y-123934042D01*
X154551178Y-123934046D01*
X154684962Y-124125109D01*
X154849891Y-124290038D01*
X155040954Y-124423822D01*
X155107915Y-124455046D01*
X155252339Y-124522392D01*
X155252341Y-124522392D01*
X155252346Y-124522395D01*
X155477643Y-124582763D01*
X155663528Y-124599026D01*
X155709999Y-124603092D01*
X155710000Y-124603092D01*
X155710001Y-124603092D01*
X155748726Y-124599703D01*
X155942357Y-124582763D01*
X156167654Y-124522395D01*
X156379046Y-124423822D01*
X156570109Y-124290038D01*
X156735038Y-124125109D01*
X156868822Y-123934046D01*
X156868826Y-123934035D01*
X156871527Y-123929360D01*
X156873179Y-123930313D01*
X156913784Y-123884192D01*
X156980976Y-123865036D01*
X157047859Y-123885248D01*
X157086879Y-123930280D01*
X157088473Y-123929360D01*
X157091176Y-123934042D01*
X157091178Y-123934046D01*
X157224962Y-124125109D01*
X157389891Y-124290038D01*
X157580954Y-124423822D01*
X157647915Y-124455046D01*
X157792339Y-124522392D01*
X157792341Y-124522392D01*
X157792346Y-124522395D01*
X158017643Y-124582763D01*
X158203528Y-124599026D01*
X158249999Y-124603092D01*
X158250000Y-124603092D01*
X158250001Y-124603092D01*
X158288726Y-124599703D01*
X158482357Y-124582763D01*
X158707654Y-124522395D01*
X158919046Y-124423822D01*
X159110109Y-124290038D01*
X159275038Y-124125109D01*
X159408822Y-123934046D01*
X159408826Y-123934035D01*
X159411527Y-123929360D01*
X159413016Y-123930219D01*
X159454060Y-123883600D01*
X159521252Y-123864444D01*
X159588134Y-123884655D01*
X159627405Y-123929976D01*
X159628908Y-123929109D01*
X159631612Y-123933793D01*
X159687638Y-124013807D01*
X160262129Y-123439316D01*
X160272822Y-123479222D01*
X160345890Y-123605778D01*
X160449222Y-123709110D01*
X160575778Y-123782178D01*
X160615682Y-123792870D01*
X160041191Y-124367360D01*
X160121205Y-124423386D01*
X160332515Y-124521921D01*
X160332521Y-124521924D01*
X160557727Y-124582268D01*
X160557735Y-124582269D01*
X160789998Y-124602590D01*
X160790002Y-124602590D01*
X161022264Y-124582269D01*
X161022272Y-124582268D01*
X161247478Y-124521924D01*
X161247484Y-124521921D01*
X161458795Y-124423386D01*
X161458801Y-124423382D01*
X161538807Y-124367361D01*
X161538807Y-124367360D01*
X160964317Y-123792870D01*
X161004222Y-123782178D01*
X161130778Y-123709110D01*
X161234110Y-123605778D01*
X161307178Y-123479222D01*
X161317870Y-123439317D01*
X161892360Y-124013807D01*
X161892361Y-124013807D01*
X161948382Y-123933801D01*
X161951092Y-123929109D01*
X161952656Y-123930012D01*
X161993475Y-123883620D01*
X162060662Y-123864444D01*
X162127550Y-123884635D01*
X162167043Y-123930185D01*
X162168473Y-123929360D01*
X162171176Y-123934042D01*
X162171178Y-123934046D01*
X162304962Y-124125109D01*
X162469891Y-124290038D01*
X162660954Y-124423822D01*
X162727915Y-124455046D01*
X162872339Y-124522392D01*
X162872341Y-124522392D01*
X162872346Y-124522395D01*
X163097643Y-124582763D01*
X163283528Y-124599026D01*
X163329999Y-124603092D01*
X163330000Y-124603092D01*
X163330001Y-124603092D01*
X163368726Y-124599703D01*
X163562357Y-124582763D01*
X163787654Y-124522395D01*
X163999046Y-124423822D01*
X164190109Y-124290038D01*
X164334916Y-124145230D01*
X164396235Y-124111748D01*
X164465927Y-124116732D01*
X164521861Y-124158603D01*
X164540228Y-124197890D01*
X164540698Y-124197715D01*
X164542875Y-124203552D01*
X164543271Y-124204399D01*
X164543409Y-124204984D01*
X164593702Y-124339828D01*
X164593706Y-124339835D01*
X164679952Y-124455044D01*
X164679955Y-124455047D01*
X164795164Y-124541293D01*
X164795171Y-124541297D01*
X164930017Y-124591591D01*
X164930016Y-124591591D01*
X164936944Y-124592335D01*
X164989627Y-124598000D01*
X166750372Y-124597999D01*
X166809983Y-124591591D01*
X166944831Y-124541296D01*
X167060046Y-124455046D01*
X167146296Y-124339831D01*
X167196591Y-124204983D01*
X167203000Y-124145373D01*
X167202999Y-122384628D01*
X167196591Y-122325017D01*
X167146296Y-122190169D01*
X167146295Y-122190168D01*
X167146293Y-122190164D01*
X167060047Y-122074955D01*
X167060044Y-122074952D01*
X166944835Y-121988706D01*
X166944828Y-121988702D01*
X166809982Y-121938408D01*
X166809983Y-121938408D01*
X166750383Y-121932001D01*
X166750381Y-121932000D01*
X166750373Y-121932000D01*
X166750364Y-121932000D01*
X164989629Y-121932000D01*
X164989623Y-121932001D01*
X164930016Y-121938408D01*
X164795171Y-121988702D01*
X164795164Y-121988706D01*
X164679955Y-122074952D01*
X164679952Y-122074955D01*
X164593706Y-122190164D01*
X164593702Y-122190171D01*
X164543407Y-122325019D01*
X164543270Y-122325603D01*
X164543038Y-122326009D01*
X164540698Y-122332285D01*
X164539680Y-122331905D01*
X164508695Y-122386319D01*
X164446783Y-122418703D01*
X164377192Y-122412474D01*
X164334913Y-122384766D01*
X164190113Y-122239966D01*
X164190109Y-122239962D01*
X163999046Y-122106178D01*
X163932088Y-122074955D01*
X163787660Y-122007607D01*
X163787646Y-122007602D01*
X163562362Y-121947238D01*
X163562352Y-121947236D01*
X163330001Y-121926908D01*
X163329999Y-121926908D01*
X163097647Y-121947236D01*
X163097637Y-121947238D01*
X162872353Y-122007602D01*
X162872339Y-122007607D01*
X162660957Y-122106176D01*
X162660955Y-122106177D01*
X162589241Y-122156391D01*
X162469891Y-122239962D01*
X162469889Y-122239963D01*
X162469886Y-122239966D01*
X162304966Y-122404886D01*
X162304963Y-122404889D01*
X162304962Y-122404891D01*
X162295291Y-122418703D01*
X162171177Y-122595955D01*
X162168473Y-122600640D01*
X162166992Y-122599785D01*
X162125896Y-122646426D01*
X162058696Y-122665555D01*
X161991822Y-122645315D01*
X161952597Y-122600022D01*
X161951092Y-122600891D01*
X161948387Y-122596206D01*
X161892360Y-122516191D01*
X161317870Y-123090681D01*
X161307178Y-123050778D01*
X161234110Y-122924222D01*
X161130778Y-122820890D01*
X161004222Y-122747822D01*
X160964316Y-122737129D01*
X161538807Y-122162638D01*
X161458794Y-122106613D01*
X161247484Y-122008078D01*
X161247478Y-122008075D01*
X161022272Y-121947731D01*
X161022264Y-121947730D01*
X160790002Y-121927410D01*
X160789998Y-121927410D01*
X160557735Y-121947730D01*
X160557727Y-121947731D01*
X160332521Y-122008075D01*
X160332515Y-122008078D01*
X160121206Y-122106612D01*
X160121204Y-122106613D01*
X160041192Y-122162638D01*
X160041191Y-122162638D01*
X160615683Y-122737129D01*
X160575778Y-122747822D01*
X160449222Y-122820890D01*
X160345890Y-122924222D01*
X160272822Y-123050778D01*
X160262129Y-123090682D01*
X159687638Y-122516191D01*
X159687638Y-122516192D01*
X159631613Y-122596204D01*
X159628905Y-122600896D01*
X159627348Y-122599997D01*
X159586476Y-122646409D01*
X159519281Y-122665555D01*
X159452402Y-122645333D01*
X159412959Y-122599813D01*
X159411527Y-122600640D01*
X159408822Y-122595955D01*
X159408822Y-122595954D01*
X159275038Y-122404891D01*
X159110109Y-122239962D01*
X158919046Y-122106178D01*
X158852088Y-122074955D01*
X158707660Y-122007607D01*
X158707646Y-122007602D01*
X158482362Y-121947238D01*
X158482352Y-121947236D01*
X158250001Y-121926908D01*
X158249999Y-121926908D01*
X158017647Y-121947236D01*
X158017637Y-121947238D01*
X157792353Y-122007602D01*
X157792339Y-122007607D01*
X157580957Y-122106176D01*
X157580955Y-122106177D01*
X157509241Y-122156391D01*
X157389891Y-122239962D01*
X157389889Y-122239963D01*
X157389886Y-122239966D01*
X157224966Y-122404886D01*
X157224963Y-122404889D01*
X157224962Y-122404891D01*
X157215291Y-122418703D01*
X157091177Y-122595955D01*
X157088473Y-122600640D01*
X157086824Y-122599688D01*
X157046199Y-122645818D01*
X156979003Y-122664963D01*
X156912124Y-122644740D01*
X156873115Y-122599722D01*
X156871527Y-122600640D01*
X156868822Y-122595955D01*
X156868822Y-122595954D01*
X156735038Y-122404891D01*
X156570109Y-122239962D01*
X156379046Y-122106178D01*
X156312088Y-122074955D01*
X156167660Y-122007607D01*
X156167646Y-122007602D01*
X155942362Y-121947238D01*
X155942352Y-121947236D01*
X155710001Y-121926908D01*
X155709999Y-121926908D01*
X155477647Y-121947236D01*
X155477637Y-121947238D01*
X155252353Y-122007602D01*
X155252339Y-122007607D01*
X155040957Y-122106176D01*
X155040955Y-122106177D01*
X154969241Y-122156391D01*
X154849891Y-122239962D01*
X154849889Y-122239963D01*
X154849886Y-122239966D01*
X154684966Y-122404886D01*
X154684963Y-122404889D01*
X154684962Y-122404891D01*
X154675291Y-122418703D01*
X154551177Y-122595955D01*
X154548473Y-122600640D01*
X154546824Y-122599688D01*
X154506199Y-122645818D01*
X154439003Y-122664963D01*
X154372124Y-122644740D01*
X154333115Y-122599722D01*
X154331527Y-122600640D01*
X154328822Y-122595955D01*
X154328822Y-122595954D01*
X154195038Y-122404891D01*
X154030109Y-122239962D01*
X153839046Y-122106178D01*
X153772088Y-122074955D01*
X153627660Y-122007607D01*
X153627646Y-122007602D01*
X153402362Y-121947238D01*
X153402352Y-121947236D01*
X153170001Y-121926908D01*
X153169999Y-121926908D01*
X152937647Y-121947236D01*
X152937637Y-121947238D01*
X152712353Y-122007602D01*
X152712339Y-122007607D01*
X152500957Y-122106176D01*
X152500955Y-122106177D01*
X152429241Y-122156391D01*
X152309891Y-122239962D01*
X152309889Y-122239963D01*
X152309886Y-122239966D01*
X152144966Y-122404886D01*
X152144963Y-122404889D01*
X152144962Y-122404891D01*
X152135291Y-122418703D01*
X152011177Y-122595955D01*
X152008473Y-122600640D01*
X152006824Y-122599688D01*
X151966199Y-122645818D01*
X151899003Y-122664963D01*
X151832124Y-122644740D01*
X151793115Y-122599722D01*
X151791527Y-122600640D01*
X151788822Y-122595955D01*
X151788822Y-122595954D01*
X151655038Y-122404891D01*
X151490109Y-122239962D01*
X151299046Y-122106178D01*
X151232088Y-122074955D01*
X151087660Y-122007607D01*
X151087646Y-122007602D01*
X150862362Y-121947238D01*
X150862352Y-121947236D01*
X150630001Y-121926908D01*
X150629999Y-121926908D01*
X150397647Y-121947236D01*
X150397637Y-121947238D01*
X150172353Y-122007602D01*
X150172339Y-122007607D01*
X149960957Y-122106176D01*
X149960955Y-122106177D01*
X149889241Y-122156391D01*
X149769891Y-122239962D01*
X149769889Y-122239963D01*
X149769886Y-122239966D01*
X149604966Y-122404886D01*
X149604963Y-122404889D01*
X149604962Y-122404891D01*
X149595291Y-122418703D01*
X149471177Y-122595955D01*
X149471176Y-122595957D01*
X149372607Y-122807339D01*
X149372602Y-122807353D01*
X149312238Y-123032637D01*
X149312236Y-123032647D01*
X149291908Y-123264999D01*
X139750500Y-123264999D01*
X139750500Y-111995730D01*
X166699500Y-111995730D01*
X166699500Y-113204269D01*
X166702353Y-113234699D01*
X166702353Y-113234701D01*
X166747206Y-113362880D01*
X166747207Y-113362882D01*
X166827850Y-113472150D01*
X166937118Y-113552793D01*
X166979845Y-113567744D01*
X167065299Y-113597646D01*
X167095730Y-113600500D01*
X167095734Y-113600500D01*
X169304270Y-113600500D01*
X169334699Y-113597646D01*
X169334701Y-113597646D01*
X169398790Y-113575219D01*
X169462882Y-113552793D01*
X169572150Y-113472150D01*
X169652793Y-113362882D01*
X169675219Y-113298790D01*
X169697646Y-113234701D01*
X169697646Y-113234699D01*
X169700500Y-113204269D01*
X169700500Y-111995730D01*
X169697646Y-111965300D01*
X169697646Y-111965298D01*
X169652793Y-111837119D01*
X169652792Y-111837117D01*
X169572150Y-111727850D01*
X169462882Y-111647207D01*
X169462880Y-111647206D01*
X169334700Y-111602353D01*
X169304270Y-111599500D01*
X169304266Y-111599500D01*
X167095734Y-111599500D01*
X167095730Y-111599500D01*
X167065300Y-111602353D01*
X167065298Y-111602353D01*
X166937119Y-111647206D01*
X166937117Y-111647207D01*
X166827850Y-111727850D01*
X166747207Y-111837117D01*
X166747206Y-111837119D01*
X166702353Y-111965298D01*
X166702353Y-111965300D01*
X166699500Y-111995730D01*
X139750500Y-111995730D01*
X139750500Y-110158543D01*
X166699499Y-110158543D01*
X166737947Y-110351829D01*
X166737950Y-110351839D01*
X166813364Y-110533907D01*
X166813371Y-110533920D01*
X166922860Y-110697781D01*
X166922863Y-110697785D01*
X167062214Y-110837136D01*
X167062218Y-110837139D01*
X167226079Y-110946628D01*
X167226092Y-110946635D01*
X167408160Y-111022049D01*
X167408165Y-111022051D01*
X167408169Y-111022051D01*
X167408170Y-111022052D01*
X167601456Y-111060500D01*
X167601459Y-111060500D01*
X168798543Y-111060500D01*
X168928582Y-111034632D01*
X168991835Y-111022051D01*
X169173914Y-110946632D01*
X169337782Y-110837139D01*
X169477139Y-110697782D01*
X169586632Y-110533914D01*
X169662051Y-110351835D01*
X169700500Y-110158541D01*
X169700500Y-109961459D01*
X169700500Y-109961456D01*
X169662052Y-109768170D01*
X169662051Y-109768169D01*
X169662051Y-109768165D01*
X169662049Y-109768160D01*
X169586635Y-109586092D01*
X169586628Y-109586079D01*
X169477139Y-109422218D01*
X169477136Y-109422214D01*
X169337785Y-109282863D01*
X169337781Y-109282860D01*
X169173920Y-109173371D01*
X169173907Y-109173364D01*
X168991839Y-109097950D01*
X168991829Y-109097947D01*
X168798543Y-109059500D01*
X168798541Y-109059500D01*
X167601459Y-109059500D01*
X167601457Y-109059500D01*
X167408170Y-109097947D01*
X167408160Y-109097950D01*
X167226092Y-109173364D01*
X167226079Y-109173371D01*
X167062218Y-109282860D01*
X167062214Y-109282863D01*
X166922863Y-109422214D01*
X166922860Y-109422218D01*
X166813371Y-109586079D01*
X166813364Y-109586092D01*
X166737950Y-109768160D01*
X166737947Y-109768170D01*
X166699500Y-109961456D01*
X166699500Y-109961459D01*
X166699500Y-110158541D01*
X166699500Y-110158543D01*
X166699499Y-110158543D01*
X139750500Y-110158543D01*
X139750500Y-104730000D01*
X166423391Y-104730000D01*
X168066988Y-104730000D01*
X168034075Y-104787007D01*
X168000000Y-104914174D01*
X168000000Y-105045826D01*
X168034075Y-105172993D01*
X168066988Y-105230000D01*
X166423391Y-105230000D01*
X166432009Y-105284413D01*
X166495244Y-105479029D01*
X166588140Y-105661349D01*
X166708417Y-105826894D01*
X166708417Y-105826895D01*
X166853104Y-105971582D01*
X167018650Y-106091859D01*
X167200968Y-106184755D01*
X167395582Y-106247990D01*
X167584268Y-106277875D01*
X167647403Y-106307804D01*
X167684334Y-106367116D01*
X167683336Y-106436978D01*
X167644726Y-106495211D01*
X167589062Y-106521965D01*
X167408170Y-106557947D01*
X167408160Y-106557950D01*
X167226092Y-106633364D01*
X167226079Y-106633371D01*
X167062218Y-106742860D01*
X167062214Y-106742863D01*
X166922863Y-106882214D01*
X166922860Y-106882218D01*
X166813371Y-107046079D01*
X166813364Y-107046092D01*
X166737950Y-107228160D01*
X166737947Y-107228170D01*
X166699500Y-107421456D01*
X166699500Y-107421459D01*
X166699500Y-107618541D01*
X166699500Y-107618543D01*
X166699499Y-107618543D01*
X166737947Y-107811829D01*
X166737950Y-107811839D01*
X166813364Y-107993907D01*
X166813371Y-107993920D01*
X166922860Y-108157781D01*
X166922863Y-108157785D01*
X167062214Y-108297136D01*
X167062218Y-108297139D01*
X167226079Y-108406628D01*
X167226092Y-108406635D01*
X167408160Y-108482049D01*
X167408165Y-108482051D01*
X167408169Y-108482051D01*
X167408170Y-108482052D01*
X167601456Y-108520500D01*
X167601459Y-108520500D01*
X168798543Y-108520500D01*
X168928582Y-108494632D01*
X168991835Y-108482051D01*
X169173914Y-108406632D01*
X169337782Y-108297139D01*
X169477139Y-108157782D01*
X169586632Y-107993914D01*
X169662051Y-107811835D01*
X169700500Y-107618541D01*
X169700500Y-107421459D01*
X169700500Y-107421456D01*
X169662052Y-107228170D01*
X169662051Y-107228169D01*
X169662051Y-107228165D01*
X169662049Y-107228160D01*
X169586635Y-107046092D01*
X169586628Y-107046079D01*
X169477139Y-106882218D01*
X169477136Y-106882214D01*
X169337785Y-106742863D01*
X169337781Y-106742860D01*
X169173920Y-106633371D01*
X169173907Y-106633364D01*
X168991839Y-106557950D01*
X168991829Y-106557947D01*
X168810937Y-106521965D01*
X168749026Y-106489580D01*
X168714452Y-106428864D01*
X168718192Y-106359095D01*
X168759059Y-106302423D01*
X168815731Y-106277875D01*
X169004417Y-106247990D01*
X169199031Y-106184755D01*
X169381349Y-106091859D01*
X169546894Y-105971582D01*
X169546895Y-105971582D01*
X169691582Y-105826895D01*
X169691582Y-105826894D01*
X169811859Y-105661349D01*
X169904755Y-105479029D01*
X169967990Y-105284413D01*
X169976609Y-105230000D01*
X168933012Y-105230000D01*
X168965925Y-105172993D01*
X169000000Y-105045826D01*
X169000000Y-104914174D01*
X168965925Y-104787007D01*
X168933012Y-104730000D01*
X169976609Y-104730000D01*
X169967990Y-104675586D01*
X169904755Y-104480970D01*
X169811859Y-104298650D01*
X169691582Y-104133105D01*
X169691582Y-104133104D01*
X169546895Y-103988417D01*
X169381349Y-103868140D01*
X169199031Y-103775244D01*
X169004417Y-103712009D01*
X168815731Y-103682124D01*
X168752596Y-103652194D01*
X168715665Y-103592883D01*
X168716663Y-103523020D01*
X168755273Y-103464788D01*
X168810938Y-103438034D01*
X168991835Y-103402051D01*
X169173914Y-103326632D01*
X169337782Y-103217139D01*
X169477139Y-103077782D01*
X169586632Y-102913914D01*
X169662051Y-102731835D01*
X169700500Y-102538541D01*
X169700500Y-102341459D01*
X169700500Y-102341456D01*
X169662052Y-102148170D01*
X169662051Y-102148169D01*
X169662051Y-102148165D01*
X169662049Y-102148160D01*
X169586635Y-101966092D01*
X169586628Y-101966079D01*
X169477139Y-101802218D01*
X169477136Y-101802214D01*
X169337785Y-101662863D01*
X169337781Y-101662860D01*
X169173920Y-101553371D01*
X169173907Y-101553364D01*
X168991839Y-101477950D01*
X168991829Y-101477947D01*
X168798543Y-101439500D01*
X168798541Y-101439500D01*
X167601459Y-101439500D01*
X167601457Y-101439500D01*
X167408170Y-101477947D01*
X167408160Y-101477950D01*
X167226092Y-101553364D01*
X167226079Y-101553371D01*
X167062218Y-101662860D01*
X167062214Y-101662863D01*
X166922863Y-101802214D01*
X166922860Y-101802218D01*
X166813371Y-101966079D01*
X166813364Y-101966092D01*
X166737950Y-102148160D01*
X166737947Y-102148170D01*
X166699500Y-102341456D01*
X166699500Y-102341459D01*
X166699500Y-102538541D01*
X166699500Y-102538543D01*
X166699499Y-102538543D01*
X166737947Y-102731829D01*
X166737950Y-102731839D01*
X166813364Y-102913907D01*
X166813371Y-102913920D01*
X166922860Y-103077781D01*
X166922863Y-103077785D01*
X167062214Y-103217136D01*
X167062218Y-103217139D01*
X167226079Y-103326628D01*
X167226092Y-103326635D01*
X167408160Y-103402049D01*
X167408165Y-103402051D01*
X167540674Y-103428409D01*
X167589061Y-103438034D01*
X167650972Y-103470419D01*
X167685546Y-103531134D01*
X167681807Y-103600904D01*
X167640940Y-103657576D01*
X167584269Y-103682124D01*
X167395581Y-103712010D01*
X167200968Y-103775244D01*
X167018650Y-103868140D01*
X166853105Y-103988417D01*
X166853104Y-103988417D01*
X166708417Y-104133104D01*
X166708417Y-104133105D01*
X166588140Y-104298650D01*
X166495244Y-104480970D01*
X166432009Y-104675586D01*
X166423391Y-104730000D01*
X139750500Y-104730000D01*
X139750500Y-102538543D01*
X146979499Y-102538543D01*
X147017947Y-102731829D01*
X147017950Y-102731839D01*
X147093364Y-102913907D01*
X147093371Y-102913920D01*
X147202860Y-103077781D01*
X147202863Y-103077785D01*
X147342214Y-103217136D01*
X147342218Y-103217139D01*
X147506079Y-103326628D01*
X147506092Y-103326635D01*
X147688160Y-103402049D01*
X147688165Y-103402051D01*
X147688169Y-103402051D01*
X147688170Y-103402052D01*
X147881456Y-103440500D01*
X147881459Y-103440500D01*
X149078543Y-103440500D01*
X149208582Y-103414632D01*
X149271835Y-103402051D01*
X149453914Y-103326632D01*
X149617782Y-103217139D01*
X149757139Y-103077782D01*
X149866632Y-102913914D01*
X149942051Y-102731835D01*
X149980500Y-102538541D01*
X149980500Y-102341459D01*
X149980500Y-102341456D01*
X149942052Y-102148170D01*
X149942051Y-102148169D01*
X149942051Y-102148165D01*
X149942049Y-102148160D01*
X149866635Y-101966092D01*
X149866628Y-101966079D01*
X149757139Y-101802218D01*
X149757136Y-101802214D01*
X149617785Y-101662863D01*
X149617781Y-101662860D01*
X149453920Y-101553371D01*
X149453907Y-101553364D01*
X149271839Y-101477950D01*
X149271829Y-101477947D01*
X149078543Y-101439500D01*
X149078541Y-101439500D01*
X147881459Y-101439500D01*
X147881457Y-101439500D01*
X147688170Y-101477947D01*
X147688160Y-101477950D01*
X147506092Y-101553364D01*
X147506079Y-101553371D01*
X147342218Y-101662860D01*
X147342214Y-101662863D01*
X147202863Y-101802214D01*
X147202860Y-101802218D01*
X147093371Y-101966079D01*
X147093364Y-101966092D01*
X147017950Y-102148160D01*
X147017947Y-102148170D01*
X146979500Y-102341456D01*
X146979500Y-102341459D01*
X146979500Y-102538541D01*
X146979500Y-102538543D01*
X146979499Y-102538543D01*
X139750500Y-102538543D01*
X139750500Y-99998543D01*
X146979499Y-99998543D01*
X147017947Y-100191829D01*
X147017950Y-100191839D01*
X147093364Y-100373907D01*
X147093371Y-100373920D01*
X147202860Y-100537781D01*
X147202863Y-100537785D01*
X147342214Y-100677136D01*
X147342218Y-100677139D01*
X147506079Y-100786628D01*
X147506092Y-100786635D01*
X147688160Y-100862049D01*
X147688165Y-100862051D01*
X147688169Y-100862051D01*
X147688170Y-100862052D01*
X147881456Y-100900500D01*
X147881459Y-100900500D01*
X149078543Y-100900500D01*
X149208582Y-100874632D01*
X149271835Y-100862051D01*
X149453914Y-100786632D01*
X149617782Y-100677139D01*
X149757139Y-100537782D01*
X149866632Y-100373914D01*
X149942051Y-100191835D01*
X149980500Y-99998543D01*
X166699499Y-99998543D01*
X166737947Y-100191829D01*
X166737950Y-100191839D01*
X166813364Y-100373907D01*
X166813371Y-100373920D01*
X166922860Y-100537781D01*
X166922863Y-100537785D01*
X167062214Y-100677136D01*
X167062218Y-100677139D01*
X167226079Y-100786628D01*
X167226092Y-100786635D01*
X167408160Y-100862049D01*
X167408165Y-100862051D01*
X167408169Y-100862051D01*
X167408170Y-100862052D01*
X167601456Y-100900500D01*
X167601459Y-100900500D01*
X168798543Y-100900500D01*
X168928582Y-100874632D01*
X168991835Y-100862051D01*
X169173914Y-100786632D01*
X169337782Y-100677139D01*
X169477139Y-100537782D01*
X169586632Y-100373914D01*
X169662051Y-100191835D01*
X169700500Y-99998541D01*
X169700500Y-99801459D01*
X169700500Y-99801456D01*
X169662052Y-99608170D01*
X169662051Y-99608169D01*
X169662051Y-99608165D01*
X169662049Y-99608160D01*
X169586635Y-99426092D01*
X169586628Y-99426079D01*
X169477139Y-99262218D01*
X169477136Y-99262214D01*
X169337785Y-99122863D01*
X169337781Y-99122860D01*
X169173920Y-99013371D01*
X169173907Y-99013364D01*
X168991839Y-98937950D01*
X168991829Y-98937947D01*
X168798543Y-98899500D01*
X168798541Y-98899500D01*
X167601459Y-98899500D01*
X167601457Y-98899500D01*
X167408170Y-98937947D01*
X167408160Y-98937950D01*
X167226092Y-99013364D01*
X167226079Y-99013371D01*
X167062218Y-99122860D01*
X167062214Y-99122863D01*
X166922863Y-99262214D01*
X166922860Y-99262218D01*
X166813371Y-99426079D01*
X166813364Y-99426092D01*
X166737950Y-99608160D01*
X166737947Y-99608170D01*
X166699500Y-99801456D01*
X166699500Y-99801459D01*
X166699500Y-99998541D01*
X166699500Y-99998543D01*
X166699499Y-99998543D01*
X149980500Y-99998543D01*
X149980500Y-99998541D01*
X149980500Y-99801459D01*
X149980500Y-99801456D01*
X149942052Y-99608170D01*
X149942051Y-99608169D01*
X149942051Y-99608165D01*
X149942049Y-99608160D01*
X149866635Y-99426092D01*
X149866628Y-99426079D01*
X149757139Y-99262218D01*
X149757136Y-99262214D01*
X149617785Y-99122863D01*
X149617781Y-99122860D01*
X149453920Y-99013371D01*
X149453907Y-99013364D01*
X149271839Y-98937950D01*
X149271829Y-98937947D01*
X149078543Y-98899500D01*
X149078541Y-98899500D01*
X147881459Y-98899500D01*
X147881457Y-98899500D01*
X147688170Y-98937947D01*
X147688160Y-98937950D01*
X147506092Y-99013364D01*
X147506079Y-99013371D01*
X147342218Y-99122860D01*
X147342214Y-99122863D01*
X147202863Y-99262214D01*
X147202860Y-99262218D01*
X147093371Y-99426079D01*
X147093364Y-99426092D01*
X147017950Y-99608160D01*
X147017947Y-99608170D01*
X146979500Y-99801456D01*
X146979500Y-99801459D01*
X146979500Y-99998541D01*
X146979500Y-99998543D01*
X146979499Y-99998543D01*
X139750500Y-99998543D01*
X139750500Y-97458543D01*
X146979499Y-97458543D01*
X147017947Y-97651829D01*
X147017950Y-97651839D01*
X147093364Y-97833907D01*
X147093371Y-97833920D01*
X147202860Y-97997781D01*
X147202863Y-97997785D01*
X147342214Y-98137136D01*
X147342218Y-98137139D01*
X147506079Y-98246628D01*
X147506092Y-98246635D01*
X147688160Y-98322049D01*
X147688165Y-98322051D01*
X147688169Y-98322051D01*
X147688170Y-98322052D01*
X147881456Y-98360500D01*
X147881459Y-98360500D01*
X149078543Y-98360500D01*
X149208582Y-98334632D01*
X149271835Y-98322051D01*
X149453914Y-98246632D01*
X149617782Y-98137139D01*
X149757139Y-97997782D01*
X149866632Y-97833914D01*
X149942051Y-97651835D01*
X149980500Y-97458543D01*
X166699499Y-97458543D01*
X166737947Y-97651829D01*
X166737950Y-97651839D01*
X166813364Y-97833907D01*
X166813371Y-97833920D01*
X166922860Y-97997781D01*
X166922863Y-97997785D01*
X167062214Y-98137136D01*
X167062218Y-98137139D01*
X167226079Y-98246628D01*
X167226092Y-98246635D01*
X167408160Y-98322049D01*
X167408165Y-98322051D01*
X167408169Y-98322051D01*
X167408170Y-98322052D01*
X167601456Y-98360500D01*
X167601459Y-98360500D01*
X168798543Y-98360500D01*
X168928582Y-98334632D01*
X168991835Y-98322051D01*
X169173914Y-98246632D01*
X169337782Y-98137139D01*
X169477139Y-97997782D01*
X169586632Y-97833914D01*
X169662051Y-97651835D01*
X169700500Y-97458541D01*
X169700500Y-97261459D01*
X169700500Y-97261456D01*
X169662052Y-97068170D01*
X169662051Y-97068169D01*
X169662051Y-97068165D01*
X169662049Y-97068160D01*
X169586635Y-96886092D01*
X169586628Y-96886079D01*
X169477139Y-96722218D01*
X169477136Y-96722214D01*
X169337785Y-96582863D01*
X169337781Y-96582860D01*
X169173920Y-96473371D01*
X169173907Y-96473364D01*
X168991839Y-96397950D01*
X168991829Y-96397947D01*
X168798543Y-96359500D01*
X168798541Y-96359500D01*
X167601459Y-96359500D01*
X167601457Y-96359500D01*
X167408170Y-96397947D01*
X167408160Y-96397950D01*
X167226092Y-96473364D01*
X167226079Y-96473371D01*
X167062218Y-96582860D01*
X167062214Y-96582863D01*
X166922863Y-96722214D01*
X166922860Y-96722218D01*
X166813371Y-96886079D01*
X166813364Y-96886092D01*
X166737950Y-97068160D01*
X166737947Y-97068170D01*
X166699500Y-97261456D01*
X166699500Y-97261459D01*
X166699500Y-97458541D01*
X166699500Y-97458543D01*
X166699499Y-97458543D01*
X149980500Y-97458543D01*
X149980500Y-97458541D01*
X149980500Y-97261459D01*
X149980500Y-97261456D01*
X149942052Y-97068170D01*
X149942051Y-97068169D01*
X149942051Y-97068165D01*
X149942049Y-97068160D01*
X149866635Y-96886092D01*
X149866628Y-96886079D01*
X149757139Y-96722218D01*
X149757136Y-96722214D01*
X149617785Y-96582863D01*
X149617781Y-96582860D01*
X149453920Y-96473371D01*
X149453907Y-96473364D01*
X149271839Y-96397950D01*
X149271829Y-96397947D01*
X149078543Y-96359500D01*
X149078541Y-96359500D01*
X147881459Y-96359500D01*
X147881457Y-96359500D01*
X147688170Y-96397947D01*
X147688160Y-96397950D01*
X147506092Y-96473364D01*
X147506079Y-96473371D01*
X147342218Y-96582860D01*
X147342214Y-96582863D01*
X147202863Y-96722214D01*
X147202860Y-96722218D01*
X147093371Y-96886079D01*
X147093364Y-96886092D01*
X147017950Y-97068160D01*
X147017947Y-97068170D01*
X146979500Y-97261456D01*
X146979500Y-97261459D01*
X146979500Y-97458541D01*
X146979500Y-97458543D01*
X146979499Y-97458543D01*
X139750500Y-97458543D01*
X139750500Y-94918543D01*
X146979499Y-94918543D01*
X147017947Y-95111829D01*
X147017950Y-95111839D01*
X147093364Y-95293907D01*
X147093371Y-95293920D01*
X147202860Y-95457781D01*
X147202863Y-95457785D01*
X147342214Y-95597136D01*
X147342218Y-95597139D01*
X147506079Y-95706628D01*
X147506092Y-95706635D01*
X147688160Y-95782049D01*
X147688165Y-95782051D01*
X147688169Y-95782051D01*
X147688170Y-95782052D01*
X147881456Y-95820500D01*
X147881459Y-95820500D01*
X149078543Y-95820500D01*
X149208582Y-95794632D01*
X149271835Y-95782051D01*
X149453914Y-95706632D01*
X149617782Y-95597139D01*
X149757139Y-95457782D01*
X149866632Y-95293914D01*
X149942051Y-95111835D01*
X149980500Y-94918543D01*
X166699499Y-94918543D01*
X166737947Y-95111829D01*
X166737950Y-95111839D01*
X166813364Y-95293907D01*
X166813371Y-95293920D01*
X166922860Y-95457781D01*
X166922863Y-95457785D01*
X167062214Y-95597136D01*
X167062218Y-95597139D01*
X167226079Y-95706628D01*
X167226092Y-95706635D01*
X167408160Y-95782049D01*
X167408165Y-95782051D01*
X167408169Y-95782051D01*
X167408170Y-95782052D01*
X167601456Y-95820500D01*
X167601459Y-95820500D01*
X168798543Y-95820500D01*
X168928582Y-95794632D01*
X168991835Y-95782051D01*
X169173914Y-95706632D01*
X169337782Y-95597139D01*
X169477139Y-95457782D01*
X169586632Y-95293914D01*
X169662051Y-95111835D01*
X169700500Y-94918541D01*
X169700500Y-94721459D01*
X169700500Y-94721456D01*
X169662052Y-94528170D01*
X169662051Y-94528169D01*
X169662051Y-94528165D01*
X169662049Y-94528160D01*
X169586635Y-94346092D01*
X169586628Y-94346079D01*
X169477139Y-94182218D01*
X169477136Y-94182214D01*
X169337785Y-94042863D01*
X169337781Y-94042860D01*
X169173920Y-93933371D01*
X169173907Y-93933364D01*
X168991839Y-93857950D01*
X168991829Y-93857947D01*
X168798543Y-93819500D01*
X168798541Y-93819500D01*
X167601459Y-93819500D01*
X167601457Y-93819500D01*
X167408170Y-93857947D01*
X167408160Y-93857950D01*
X167226092Y-93933364D01*
X167226079Y-93933371D01*
X167062218Y-94042860D01*
X167062214Y-94042863D01*
X166922863Y-94182214D01*
X166922860Y-94182218D01*
X166813371Y-94346079D01*
X166813364Y-94346092D01*
X166737950Y-94528160D01*
X166737947Y-94528170D01*
X166699500Y-94721456D01*
X166699500Y-94721459D01*
X166699500Y-94918541D01*
X166699500Y-94918543D01*
X166699499Y-94918543D01*
X149980500Y-94918543D01*
X149980500Y-94918541D01*
X149980500Y-94721459D01*
X149980500Y-94721456D01*
X149942052Y-94528170D01*
X149942051Y-94528169D01*
X149942051Y-94528165D01*
X149942049Y-94528160D01*
X149866635Y-94346092D01*
X149866628Y-94346079D01*
X149757139Y-94182218D01*
X149757136Y-94182214D01*
X149617785Y-94042863D01*
X149617781Y-94042860D01*
X149453920Y-93933371D01*
X149453907Y-93933364D01*
X149271839Y-93857950D01*
X149271829Y-93857947D01*
X149078543Y-93819500D01*
X149078541Y-93819500D01*
X147881459Y-93819500D01*
X147881457Y-93819500D01*
X147688170Y-93857947D01*
X147688160Y-93857950D01*
X147506092Y-93933364D01*
X147506079Y-93933371D01*
X147342218Y-94042860D01*
X147342214Y-94042863D01*
X147202863Y-94182214D01*
X147202860Y-94182218D01*
X147093371Y-94346079D01*
X147093364Y-94346092D01*
X147017950Y-94528160D01*
X147017947Y-94528170D01*
X146979500Y-94721456D01*
X146979500Y-94721459D01*
X146979500Y-94918541D01*
X146979500Y-94918543D01*
X146979499Y-94918543D01*
X139750500Y-94918543D01*
X139750500Y-92378543D01*
X146979499Y-92378543D01*
X147017947Y-92571829D01*
X147017950Y-92571839D01*
X147093364Y-92753907D01*
X147093371Y-92753920D01*
X147202860Y-92917781D01*
X147202863Y-92917785D01*
X147342214Y-93057136D01*
X147342218Y-93057139D01*
X147506079Y-93166628D01*
X147506092Y-93166635D01*
X147688160Y-93242049D01*
X147688165Y-93242051D01*
X147688169Y-93242051D01*
X147688170Y-93242052D01*
X147881456Y-93280500D01*
X147881459Y-93280500D01*
X149078543Y-93280500D01*
X149208582Y-93254632D01*
X149271835Y-93242051D01*
X149453914Y-93166632D01*
X149617782Y-93057139D01*
X149757139Y-92917782D01*
X149866632Y-92753914D01*
X149942051Y-92571835D01*
X149980500Y-92378543D01*
X166699499Y-92378543D01*
X166737947Y-92571829D01*
X166737950Y-92571839D01*
X166813364Y-92753907D01*
X166813371Y-92753920D01*
X166922860Y-92917781D01*
X166922863Y-92917785D01*
X167062214Y-93057136D01*
X167062218Y-93057139D01*
X167226079Y-93166628D01*
X167226092Y-93166635D01*
X167408160Y-93242049D01*
X167408165Y-93242051D01*
X167408169Y-93242051D01*
X167408170Y-93242052D01*
X167601456Y-93280500D01*
X167601459Y-93280500D01*
X168798543Y-93280500D01*
X168928582Y-93254632D01*
X168991835Y-93242051D01*
X169173914Y-93166632D01*
X169337782Y-93057139D01*
X169477139Y-92917782D01*
X169586632Y-92753914D01*
X169662051Y-92571835D01*
X169700500Y-92378541D01*
X169700500Y-92181459D01*
X169700500Y-92181456D01*
X169662052Y-91988170D01*
X169662051Y-91988169D01*
X169662051Y-91988165D01*
X169662049Y-91988160D01*
X169586635Y-91806092D01*
X169586628Y-91806079D01*
X169477139Y-91642218D01*
X169477136Y-91642214D01*
X169337785Y-91502863D01*
X169337781Y-91502860D01*
X169173920Y-91393371D01*
X169173907Y-91393364D01*
X168991839Y-91317950D01*
X168991829Y-91317947D01*
X168798543Y-91279500D01*
X168798541Y-91279500D01*
X167601459Y-91279500D01*
X167601457Y-91279500D01*
X167408170Y-91317947D01*
X167408160Y-91317950D01*
X167226092Y-91393364D01*
X167226079Y-91393371D01*
X167062218Y-91502860D01*
X167062214Y-91502863D01*
X166922863Y-91642214D01*
X166922860Y-91642218D01*
X166813371Y-91806079D01*
X166813364Y-91806092D01*
X166737950Y-91988160D01*
X166737947Y-91988170D01*
X166699500Y-92181456D01*
X166699500Y-92181459D01*
X166699500Y-92378541D01*
X166699500Y-92378543D01*
X166699499Y-92378543D01*
X149980500Y-92378543D01*
X149980500Y-92378541D01*
X149980500Y-92181459D01*
X149980500Y-92181456D01*
X149942052Y-91988170D01*
X149942051Y-91988169D01*
X149942051Y-91988165D01*
X149942049Y-91988160D01*
X149866635Y-91806092D01*
X149866628Y-91806079D01*
X149757139Y-91642218D01*
X149757136Y-91642214D01*
X149617785Y-91502863D01*
X149617781Y-91502860D01*
X149453920Y-91393371D01*
X149453907Y-91393364D01*
X149271839Y-91317950D01*
X149271829Y-91317947D01*
X149078543Y-91279500D01*
X149078541Y-91279500D01*
X147881459Y-91279500D01*
X147881457Y-91279500D01*
X147688170Y-91317947D01*
X147688160Y-91317950D01*
X147506092Y-91393364D01*
X147506079Y-91393371D01*
X147342218Y-91502860D01*
X147342214Y-91502863D01*
X147202863Y-91642214D01*
X147202860Y-91642218D01*
X147093371Y-91806079D01*
X147093364Y-91806092D01*
X147017950Y-91988160D01*
X147017947Y-91988170D01*
X146979500Y-92181456D01*
X146979500Y-92181459D01*
X146979500Y-92378541D01*
X146979500Y-92378543D01*
X146979499Y-92378543D01*
X139750500Y-92378543D01*
X139750500Y-89838543D01*
X146979499Y-89838543D01*
X147017947Y-90031829D01*
X147017950Y-90031839D01*
X147093364Y-90213907D01*
X147093371Y-90213920D01*
X147202860Y-90377781D01*
X147202863Y-90377785D01*
X147342214Y-90517136D01*
X147342218Y-90517139D01*
X147506079Y-90626628D01*
X147506092Y-90626635D01*
X147688160Y-90702049D01*
X147688165Y-90702051D01*
X147688169Y-90702051D01*
X147688170Y-90702052D01*
X147881456Y-90740500D01*
X147881459Y-90740500D01*
X149078543Y-90740500D01*
X149208582Y-90714632D01*
X149271835Y-90702051D01*
X149453914Y-90626632D01*
X149617782Y-90517139D01*
X149757139Y-90377782D01*
X149866632Y-90213914D01*
X149942051Y-90031835D01*
X149980500Y-89838543D01*
X166699499Y-89838543D01*
X166737947Y-90031829D01*
X166737950Y-90031839D01*
X166813364Y-90213907D01*
X166813371Y-90213920D01*
X166922860Y-90377781D01*
X166922863Y-90377785D01*
X167062214Y-90517136D01*
X167062218Y-90517139D01*
X167226079Y-90626628D01*
X167226092Y-90626635D01*
X167408160Y-90702049D01*
X167408165Y-90702051D01*
X167408169Y-90702051D01*
X167408170Y-90702052D01*
X167601456Y-90740500D01*
X167601459Y-90740500D01*
X168798543Y-90740500D01*
X168928582Y-90714632D01*
X168991835Y-90702051D01*
X169173914Y-90626632D01*
X169337782Y-90517139D01*
X169477139Y-90377782D01*
X169586632Y-90213914D01*
X169662051Y-90031835D01*
X169700500Y-89838541D01*
X169700500Y-89641459D01*
X169700500Y-89641456D01*
X169662052Y-89448170D01*
X169662051Y-89448169D01*
X169662051Y-89448165D01*
X169662049Y-89448160D01*
X169586635Y-89266092D01*
X169586628Y-89266079D01*
X169477139Y-89102218D01*
X169477136Y-89102214D01*
X169337785Y-88962863D01*
X169337781Y-88962860D01*
X169173920Y-88853371D01*
X169173907Y-88853364D01*
X168991839Y-88777950D01*
X168991829Y-88777947D01*
X168798543Y-88739500D01*
X168798541Y-88739500D01*
X167601459Y-88739500D01*
X167601457Y-88739500D01*
X167408170Y-88777947D01*
X167408160Y-88777950D01*
X167226092Y-88853364D01*
X167226079Y-88853371D01*
X167062218Y-88962860D01*
X167062214Y-88962863D01*
X166922863Y-89102214D01*
X166922860Y-89102218D01*
X166813371Y-89266079D01*
X166813364Y-89266092D01*
X166737950Y-89448160D01*
X166737947Y-89448170D01*
X166699500Y-89641456D01*
X166699500Y-89641459D01*
X166699500Y-89838541D01*
X166699500Y-89838543D01*
X166699499Y-89838543D01*
X149980500Y-89838543D01*
X149980500Y-89838541D01*
X149980500Y-89641459D01*
X149980500Y-89641456D01*
X149942052Y-89448170D01*
X149942051Y-89448169D01*
X149942051Y-89448165D01*
X149942049Y-89448160D01*
X149866635Y-89266092D01*
X149866628Y-89266079D01*
X149757139Y-89102218D01*
X149757136Y-89102214D01*
X149617785Y-88962863D01*
X149617781Y-88962860D01*
X149453920Y-88853371D01*
X149453907Y-88853364D01*
X149271839Y-88777950D01*
X149271829Y-88777947D01*
X149078543Y-88739500D01*
X149078541Y-88739500D01*
X147881459Y-88739500D01*
X147881457Y-88739500D01*
X147688170Y-88777947D01*
X147688160Y-88777950D01*
X147506092Y-88853364D01*
X147506079Y-88853371D01*
X147342218Y-88962860D01*
X147342214Y-88962863D01*
X147202863Y-89102214D01*
X147202860Y-89102218D01*
X147093371Y-89266079D01*
X147093364Y-89266092D01*
X147017950Y-89448160D01*
X147017947Y-89448170D01*
X146979500Y-89641456D01*
X146979500Y-89641459D01*
X146979500Y-89838541D01*
X146979500Y-89838543D01*
X146979499Y-89838543D01*
X139750500Y-89838543D01*
X139750500Y-87298543D01*
X146979499Y-87298543D01*
X147017947Y-87491829D01*
X147017950Y-87491839D01*
X147093364Y-87673907D01*
X147093371Y-87673920D01*
X147202860Y-87837781D01*
X147202863Y-87837785D01*
X147342214Y-87977136D01*
X147342218Y-87977139D01*
X147506079Y-88086628D01*
X147506092Y-88086635D01*
X147688160Y-88162049D01*
X147688165Y-88162051D01*
X147688169Y-88162051D01*
X147688170Y-88162052D01*
X147881456Y-88200500D01*
X147881459Y-88200500D01*
X149078543Y-88200500D01*
X149208582Y-88174632D01*
X149271835Y-88162051D01*
X149453914Y-88086632D01*
X149617782Y-87977139D01*
X149757139Y-87837782D01*
X149866632Y-87673914D01*
X149942051Y-87491835D01*
X149980500Y-87298543D01*
X166699499Y-87298543D01*
X166737947Y-87491829D01*
X166737950Y-87491839D01*
X166813364Y-87673907D01*
X166813371Y-87673920D01*
X166922860Y-87837781D01*
X166922863Y-87837785D01*
X167062214Y-87977136D01*
X167062218Y-87977139D01*
X167226079Y-88086628D01*
X167226092Y-88086635D01*
X167408160Y-88162049D01*
X167408165Y-88162051D01*
X167408169Y-88162051D01*
X167408170Y-88162052D01*
X167601456Y-88200500D01*
X167601459Y-88200500D01*
X168798543Y-88200500D01*
X168928582Y-88174632D01*
X168991835Y-88162051D01*
X169173914Y-88086632D01*
X169337782Y-87977139D01*
X169477139Y-87837782D01*
X169586632Y-87673914D01*
X169662051Y-87491835D01*
X169700500Y-87298541D01*
X169700500Y-87101459D01*
X169700500Y-87101456D01*
X169662052Y-86908170D01*
X169662051Y-86908169D01*
X169662051Y-86908165D01*
X169662049Y-86908160D01*
X169586635Y-86726092D01*
X169586628Y-86726079D01*
X169477139Y-86562218D01*
X169477136Y-86562214D01*
X169337785Y-86422863D01*
X169337781Y-86422860D01*
X169173920Y-86313371D01*
X169173907Y-86313364D01*
X168991839Y-86237950D01*
X168991829Y-86237947D01*
X168798543Y-86199500D01*
X168798541Y-86199500D01*
X167601459Y-86199500D01*
X167601457Y-86199500D01*
X167408170Y-86237947D01*
X167408160Y-86237950D01*
X167226092Y-86313364D01*
X167226079Y-86313371D01*
X167062218Y-86422860D01*
X167062214Y-86422863D01*
X166922863Y-86562214D01*
X166922860Y-86562218D01*
X166813371Y-86726079D01*
X166813364Y-86726092D01*
X166737950Y-86908160D01*
X166737947Y-86908170D01*
X166699500Y-87101456D01*
X166699500Y-87101459D01*
X166699500Y-87298541D01*
X166699500Y-87298543D01*
X166699499Y-87298543D01*
X149980500Y-87298543D01*
X149980500Y-87298541D01*
X149980500Y-87101459D01*
X149980500Y-87101456D01*
X149942052Y-86908170D01*
X149942051Y-86908169D01*
X149942051Y-86908165D01*
X149942049Y-86908160D01*
X149866635Y-86726092D01*
X149866628Y-86726079D01*
X149757139Y-86562218D01*
X149757136Y-86562214D01*
X149617785Y-86422863D01*
X149617781Y-86422860D01*
X149453920Y-86313371D01*
X149453907Y-86313364D01*
X149271839Y-86237950D01*
X149271829Y-86237947D01*
X149078543Y-86199500D01*
X149078541Y-86199500D01*
X147881459Y-86199500D01*
X147881457Y-86199500D01*
X147688170Y-86237947D01*
X147688160Y-86237950D01*
X147506092Y-86313364D01*
X147506079Y-86313371D01*
X147342218Y-86422860D01*
X147342214Y-86422863D01*
X147202863Y-86562214D01*
X147202860Y-86562218D01*
X147093371Y-86726079D01*
X147093364Y-86726092D01*
X147017950Y-86908160D01*
X147017947Y-86908170D01*
X146979500Y-87101456D01*
X146979500Y-87101459D01*
X146979500Y-87298541D01*
X146979500Y-87298543D01*
X146979499Y-87298543D01*
X139750500Y-87298543D01*
X139750500Y-84758543D01*
X146979499Y-84758543D01*
X147017947Y-84951829D01*
X147017950Y-84951839D01*
X147093364Y-85133907D01*
X147093371Y-85133920D01*
X147202860Y-85297781D01*
X147202863Y-85297785D01*
X147342214Y-85437136D01*
X147342218Y-85437139D01*
X147506079Y-85546628D01*
X147506092Y-85546635D01*
X147688160Y-85622049D01*
X147688165Y-85622051D01*
X147688169Y-85622051D01*
X147688170Y-85622052D01*
X147881456Y-85660500D01*
X147881459Y-85660500D01*
X149078543Y-85660500D01*
X149208582Y-85634632D01*
X149271835Y-85622051D01*
X149453914Y-85546632D01*
X149617782Y-85437139D01*
X149757139Y-85297782D01*
X149866632Y-85133914D01*
X149942051Y-84951835D01*
X149980500Y-84758543D01*
X166699499Y-84758543D01*
X166737947Y-84951829D01*
X166737950Y-84951839D01*
X166813364Y-85133907D01*
X166813371Y-85133920D01*
X166922860Y-85297781D01*
X166922863Y-85297785D01*
X167062214Y-85437136D01*
X167062218Y-85437139D01*
X167226079Y-85546628D01*
X167226092Y-85546635D01*
X167408160Y-85622049D01*
X167408165Y-85622051D01*
X167408169Y-85622051D01*
X167408170Y-85622052D01*
X167601456Y-85660500D01*
X167601459Y-85660500D01*
X168798543Y-85660500D01*
X168928582Y-85634632D01*
X168991835Y-85622051D01*
X169173914Y-85546632D01*
X169337782Y-85437139D01*
X169477139Y-85297782D01*
X169586632Y-85133914D01*
X169662051Y-84951835D01*
X169700500Y-84758541D01*
X169700500Y-84561459D01*
X169700500Y-84561456D01*
X169662052Y-84368170D01*
X169662051Y-84368169D01*
X169662051Y-84368165D01*
X169662049Y-84368160D01*
X169586635Y-84186092D01*
X169586628Y-84186079D01*
X169477139Y-84022218D01*
X169477136Y-84022214D01*
X169337785Y-83882863D01*
X169337781Y-83882860D01*
X169173920Y-83773371D01*
X169173907Y-83773364D01*
X168991839Y-83697950D01*
X168991829Y-83697947D01*
X168798543Y-83659500D01*
X168798541Y-83659500D01*
X167601459Y-83659500D01*
X167601457Y-83659500D01*
X167408170Y-83697947D01*
X167408160Y-83697950D01*
X167226092Y-83773364D01*
X167226079Y-83773371D01*
X167062218Y-83882860D01*
X167062214Y-83882863D01*
X166922863Y-84022214D01*
X166922860Y-84022218D01*
X166813371Y-84186079D01*
X166813364Y-84186092D01*
X166737950Y-84368160D01*
X166737947Y-84368170D01*
X166699500Y-84561456D01*
X166699500Y-84561459D01*
X166699500Y-84758541D01*
X166699500Y-84758543D01*
X166699499Y-84758543D01*
X149980500Y-84758543D01*
X149980500Y-84758541D01*
X149980500Y-84561459D01*
X149980500Y-84561456D01*
X149942052Y-84368170D01*
X149942051Y-84368169D01*
X149942051Y-84368165D01*
X149942049Y-84368160D01*
X149866635Y-84186092D01*
X149866628Y-84186079D01*
X149757139Y-84022218D01*
X149757136Y-84022214D01*
X149617785Y-83882863D01*
X149617781Y-83882860D01*
X149453920Y-83773371D01*
X149453907Y-83773364D01*
X149271839Y-83697950D01*
X149271829Y-83697947D01*
X149078543Y-83659500D01*
X149078541Y-83659500D01*
X147881459Y-83659500D01*
X147881457Y-83659500D01*
X147688170Y-83697947D01*
X147688160Y-83697950D01*
X147506092Y-83773364D01*
X147506079Y-83773371D01*
X147342218Y-83882860D01*
X147342214Y-83882863D01*
X147202863Y-84022214D01*
X147202860Y-84022218D01*
X147093371Y-84186079D01*
X147093364Y-84186092D01*
X147017950Y-84368160D01*
X147017947Y-84368170D01*
X146979500Y-84561456D01*
X146979500Y-84561459D01*
X146979500Y-84758541D01*
X146979500Y-84758543D01*
X146979499Y-84758543D01*
X139750500Y-84758543D01*
X139750500Y-82218543D01*
X146979499Y-82218543D01*
X147017947Y-82411829D01*
X147017950Y-82411839D01*
X147093364Y-82593907D01*
X147093371Y-82593920D01*
X147202860Y-82757781D01*
X147202863Y-82757785D01*
X147342214Y-82897136D01*
X147342218Y-82897139D01*
X147506079Y-83006628D01*
X147506092Y-83006635D01*
X147688160Y-83082049D01*
X147688165Y-83082051D01*
X147688169Y-83082051D01*
X147688170Y-83082052D01*
X147881456Y-83120500D01*
X147881459Y-83120500D01*
X149078543Y-83120500D01*
X149208582Y-83094632D01*
X149271835Y-83082051D01*
X149453914Y-83006632D01*
X149617782Y-82897139D01*
X149757139Y-82757782D01*
X149866632Y-82593914D01*
X149942051Y-82411835D01*
X149980500Y-82218543D01*
X166699499Y-82218543D01*
X166737947Y-82411829D01*
X166737950Y-82411839D01*
X166813364Y-82593907D01*
X166813371Y-82593920D01*
X166922860Y-82757781D01*
X166922863Y-82757785D01*
X167062214Y-82897136D01*
X167062218Y-82897139D01*
X167226079Y-83006628D01*
X167226092Y-83006635D01*
X167408160Y-83082049D01*
X167408165Y-83082051D01*
X167408169Y-83082051D01*
X167408170Y-83082052D01*
X167601456Y-83120500D01*
X167601459Y-83120500D01*
X168798543Y-83120500D01*
X168928582Y-83094632D01*
X168991835Y-83082051D01*
X169173914Y-83006632D01*
X169337782Y-82897139D01*
X169477139Y-82757782D01*
X169586632Y-82593914D01*
X169662051Y-82411835D01*
X169700500Y-82218541D01*
X169700500Y-82021459D01*
X169700500Y-82021456D01*
X169662052Y-81828170D01*
X169662051Y-81828169D01*
X169662051Y-81828165D01*
X169662049Y-81828160D01*
X169586635Y-81646092D01*
X169586628Y-81646079D01*
X169477139Y-81482218D01*
X169477136Y-81482214D01*
X169337785Y-81342863D01*
X169337781Y-81342860D01*
X169173920Y-81233371D01*
X169173907Y-81233364D01*
X168991839Y-81157950D01*
X168991829Y-81157947D01*
X168798543Y-81119500D01*
X168798541Y-81119500D01*
X167601459Y-81119500D01*
X167601457Y-81119500D01*
X167408170Y-81157947D01*
X167408160Y-81157950D01*
X167226092Y-81233364D01*
X167226079Y-81233371D01*
X167062218Y-81342860D01*
X167062214Y-81342863D01*
X166922863Y-81482214D01*
X166922860Y-81482218D01*
X166813371Y-81646079D01*
X166813364Y-81646092D01*
X166737950Y-81828160D01*
X166737947Y-81828170D01*
X166699500Y-82021456D01*
X166699500Y-82021459D01*
X166699500Y-82218541D01*
X166699500Y-82218543D01*
X166699499Y-82218543D01*
X149980500Y-82218543D01*
X149980500Y-82218541D01*
X149980500Y-82021459D01*
X149980500Y-82021456D01*
X149942052Y-81828170D01*
X149942051Y-81828169D01*
X149942051Y-81828165D01*
X149942049Y-81828160D01*
X149866635Y-81646092D01*
X149866628Y-81646079D01*
X149757139Y-81482218D01*
X149757136Y-81482214D01*
X149617785Y-81342863D01*
X149617781Y-81342860D01*
X149453920Y-81233371D01*
X149453907Y-81233364D01*
X149271839Y-81157950D01*
X149271829Y-81157947D01*
X149078543Y-81119500D01*
X149078541Y-81119500D01*
X147881459Y-81119500D01*
X147881457Y-81119500D01*
X147688170Y-81157947D01*
X147688160Y-81157950D01*
X147506092Y-81233364D01*
X147506079Y-81233371D01*
X147342218Y-81342860D01*
X147342214Y-81342863D01*
X147202863Y-81482214D01*
X147202860Y-81482218D01*
X147093371Y-81646079D01*
X147093364Y-81646092D01*
X147017950Y-81828160D01*
X147017947Y-81828170D01*
X146979500Y-82021456D01*
X146979500Y-82021459D01*
X146979500Y-82218541D01*
X146979500Y-82218543D01*
X146979499Y-82218543D01*
X139750500Y-82218543D01*
X139750500Y-79678543D01*
X146979499Y-79678543D01*
X147017947Y-79871829D01*
X147017950Y-79871839D01*
X147093364Y-80053907D01*
X147093371Y-80053920D01*
X147202860Y-80217781D01*
X147202863Y-80217785D01*
X147342214Y-80357136D01*
X147342218Y-80357139D01*
X147506079Y-80466628D01*
X147506092Y-80466635D01*
X147688160Y-80542049D01*
X147688165Y-80542051D01*
X147688169Y-80542051D01*
X147688170Y-80542052D01*
X147881456Y-80580500D01*
X147881459Y-80580500D01*
X149078543Y-80580500D01*
X149208582Y-80554632D01*
X149271835Y-80542051D01*
X149453914Y-80466632D01*
X149617782Y-80357139D01*
X149757139Y-80217782D01*
X149866632Y-80053914D01*
X149942051Y-79871835D01*
X149980500Y-79678543D01*
X166699499Y-79678543D01*
X166737947Y-79871829D01*
X166737950Y-79871839D01*
X166813364Y-80053907D01*
X166813371Y-80053920D01*
X166922860Y-80217781D01*
X166922863Y-80217785D01*
X167062214Y-80357136D01*
X167062218Y-80357139D01*
X167226079Y-80466628D01*
X167226092Y-80466635D01*
X167408160Y-80542049D01*
X167408165Y-80542051D01*
X167408169Y-80542051D01*
X167408170Y-80542052D01*
X167601456Y-80580500D01*
X167601459Y-80580500D01*
X168798543Y-80580500D01*
X168928582Y-80554632D01*
X168991835Y-80542051D01*
X169173914Y-80466632D01*
X169337782Y-80357139D01*
X169477139Y-80217782D01*
X169586632Y-80053914D01*
X169662051Y-79871835D01*
X169700500Y-79678541D01*
X169700500Y-79481459D01*
X169700500Y-79481456D01*
X169662052Y-79288170D01*
X169662051Y-79288169D01*
X169662051Y-79288165D01*
X169662049Y-79288160D01*
X169586635Y-79106092D01*
X169586628Y-79106079D01*
X169477139Y-78942218D01*
X169477136Y-78942214D01*
X169337785Y-78802863D01*
X169337781Y-78802860D01*
X169173920Y-78693371D01*
X169173907Y-78693364D01*
X168991839Y-78617950D01*
X168991829Y-78617947D01*
X168798543Y-78579500D01*
X168798541Y-78579500D01*
X167601459Y-78579500D01*
X167601457Y-78579500D01*
X167408170Y-78617947D01*
X167408160Y-78617950D01*
X167226092Y-78693364D01*
X167226079Y-78693371D01*
X167062218Y-78802860D01*
X167062214Y-78802863D01*
X166922863Y-78942214D01*
X166922860Y-78942218D01*
X166813371Y-79106079D01*
X166813364Y-79106092D01*
X166737950Y-79288160D01*
X166737947Y-79288170D01*
X166699500Y-79481456D01*
X166699500Y-79481459D01*
X166699500Y-79678541D01*
X166699500Y-79678543D01*
X166699499Y-79678543D01*
X149980500Y-79678543D01*
X149980500Y-79678541D01*
X149980500Y-79481459D01*
X149980500Y-79481456D01*
X149942052Y-79288170D01*
X149942051Y-79288169D01*
X149942051Y-79288165D01*
X149942049Y-79288160D01*
X149866635Y-79106092D01*
X149866628Y-79106079D01*
X149757139Y-78942218D01*
X149757136Y-78942214D01*
X149617785Y-78802863D01*
X149617781Y-78802860D01*
X149453920Y-78693371D01*
X149453907Y-78693364D01*
X149271839Y-78617950D01*
X149271829Y-78617947D01*
X149078543Y-78579500D01*
X149078541Y-78579500D01*
X147881459Y-78579500D01*
X147881457Y-78579500D01*
X147688170Y-78617947D01*
X147688160Y-78617950D01*
X147506092Y-78693364D01*
X147506079Y-78693371D01*
X147342218Y-78802860D01*
X147342214Y-78802863D01*
X147202863Y-78942214D01*
X147202860Y-78942218D01*
X147093371Y-79106079D01*
X147093364Y-79106092D01*
X147017950Y-79288160D01*
X147017947Y-79288170D01*
X146979500Y-79481456D01*
X146979500Y-79481459D01*
X146979500Y-79678541D01*
X146979500Y-79678543D01*
X146979499Y-79678543D01*
X139750500Y-79678543D01*
X139750500Y-77138543D01*
X146979499Y-77138543D01*
X147017947Y-77331829D01*
X147017950Y-77331839D01*
X147093364Y-77513907D01*
X147093371Y-77513920D01*
X147202860Y-77677781D01*
X147202863Y-77677785D01*
X147342214Y-77817136D01*
X147342218Y-77817139D01*
X147506079Y-77926628D01*
X147506092Y-77926635D01*
X147688160Y-78002049D01*
X147688165Y-78002051D01*
X147688169Y-78002051D01*
X147688170Y-78002052D01*
X147881456Y-78040500D01*
X147881459Y-78040500D01*
X149078543Y-78040500D01*
X149208582Y-78014632D01*
X149271835Y-78002051D01*
X149453914Y-77926632D01*
X149617782Y-77817139D01*
X149757139Y-77677782D01*
X149866632Y-77513914D01*
X149942051Y-77331835D01*
X149980500Y-77138541D01*
X149980500Y-76941459D01*
X149980500Y-76941456D01*
X149942052Y-76748170D01*
X149942051Y-76748169D01*
X149942051Y-76748165D01*
X149942049Y-76748160D01*
X149866635Y-76566092D01*
X149866628Y-76566079D01*
X149757139Y-76402218D01*
X149757136Y-76402214D01*
X149617785Y-76262863D01*
X149617781Y-76262860D01*
X149453920Y-76153371D01*
X149453907Y-76153364D01*
X149271839Y-76077950D01*
X149271829Y-76077947D01*
X149078543Y-76039500D01*
X149078541Y-76039500D01*
X147881459Y-76039500D01*
X147881457Y-76039500D01*
X147688170Y-76077947D01*
X147688160Y-76077950D01*
X147506092Y-76153364D01*
X147506079Y-76153371D01*
X147342218Y-76262860D01*
X147342214Y-76262863D01*
X147202863Y-76402214D01*
X147202860Y-76402218D01*
X147093371Y-76566079D01*
X147093364Y-76566092D01*
X147017950Y-76748160D01*
X147017947Y-76748170D01*
X146979500Y-76941456D01*
X146979500Y-76941459D01*
X146979500Y-77138541D01*
X146979500Y-77138543D01*
X146979499Y-77138543D01*
X139750500Y-77138543D01*
X139750500Y-74598543D01*
X146979499Y-74598543D01*
X147017947Y-74791829D01*
X147017950Y-74791839D01*
X147093364Y-74973907D01*
X147093371Y-74973920D01*
X147202860Y-75137781D01*
X147202863Y-75137785D01*
X147342214Y-75277136D01*
X147342218Y-75277139D01*
X147506079Y-75386628D01*
X147506092Y-75386635D01*
X147688160Y-75462049D01*
X147688165Y-75462051D01*
X147688169Y-75462051D01*
X147688170Y-75462052D01*
X147881456Y-75500500D01*
X147881459Y-75500500D01*
X149078543Y-75500500D01*
X149208582Y-75474632D01*
X149271835Y-75462051D01*
X149453914Y-75386632D01*
X149617782Y-75277139D01*
X149757139Y-75137782D01*
X149866632Y-74973914D01*
X149942051Y-74791835D01*
X149950373Y-74750000D01*
X166423391Y-74750000D01*
X166432009Y-74804413D01*
X166495244Y-74999029D01*
X166588140Y-75181349D01*
X166708417Y-75346894D01*
X166708417Y-75346895D01*
X166853104Y-75491582D01*
X167018650Y-75611859D01*
X167200968Y-75704755D01*
X167395582Y-75767990D01*
X167584268Y-75797875D01*
X167647403Y-75827804D01*
X167684334Y-75887116D01*
X167683336Y-75956978D01*
X167644726Y-76015211D01*
X167589062Y-76041965D01*
X167408170Y-76077947D01*
X167408160Y-76077950D01*
X167226092Y-76153364D01*
X167226079Y-76153371D01*
X167062218Y-76262860D01*
X167062214Y-76262863D01*
X166922863Y-76402214D01*
X166922860Y-76402218D01*
X166813371Y-76566079D01*
X166813364Y-76566092D01*
X166737950Y-76748160D01*
X166737947Y-76748170D01*
X166699500Y-76941456D01*
X166699500Y-76941459D01*
X166699500Y-77138541D01*
X166699500Y-77138543D01*
X166699499Y-77138543D01*
X166737947Y-77331829D01*
X166737950Y-77331839D01*
X166813364Y-77513907D01*
X166813371Y-77513920D01*
X166922860Y-77677781D01*
X166922863Y-77677785D01*
X167062214Y-77817136D01*
X167062218Y-77817139D01*
X167226079Y-77926628D01*
X167226092Y-77926635D01*
X167408160Y-78002049D01*
X167408165Y-78002051D01*
X167408169Y-78002051D01*
X167408170Y-78002052D01*
X167601456Y-78040500D01*
X167601459Y-78040500D01*
X168798543Y-78040500D01*
X168928582Y-78014632D01*
X168991835Y-78002051D01*
X169173914Y-77926632D01*
X169337782Y-77817139D01*
X169477139Y-77677782D01*
X169586632Y-77513914D01*
X169662051Y-77331835D01*
X169700500Y-77138541D01*
X169700500Y-76941459D01*
X169700500Y-76941456D01*
X169662052Y-76748170D01*
X169662051Y-76748169D01*
X169662051Y-76748165D01*
X169662049Y-76748160D01*
X169586635Y-76566092D01*
X169586628Y-76566079D01*
X169477139Y-76402218D01*
X169477136Y-76402214D01*
X169337785Y-76262863D01*
X169337781Y-76262860D01*
X169173920Y-76153371D01*
X169173907Y-76153364D01*
X168991839Y-76077950D01*
X168991829Y-76077947D01*
X168810937Y-76041965D01*
X168749026Y-76009580D01*
X168714452Y-75948864D01*
X168718192Y-75879095D01*
X168759059Y-75822423D01*
X168815731Y-75797875D01*
X169004417Y-75767990D01*
X169199031Y-75704755D01*
X169381349Y-75611859D01*
X169546894Y-75491582D01*
X169546895Y-75491582D01*
X169691582Y-75346895D01*
X169691582Y-75346894D01*
X169811859Y-75181349D01*
X169904755Y-74999029D01*
X169967990Y-74804413D01*
X169976609Y-74750000D01*
X168933012Y-74750000D01*
X168965925Y-74692993D01*
X169000000Y-74565826D01*
X169000000Y-74434174D01*
X168965925Y-74307007D01*
X168933012Y-74250000D01*
X169976609Y-74250000D01*
X169967990Y-74195586D01*
X169904755Y-74000970D01*
X169811859Y-73818650D01*
X169691582Y-73653105D01*
X169691582Y-73653104D01*
X169546895Y-73508417D01*
X169381349Y-73388140D01*
X169199031Y-73295244D01*
X169004417Y-73232009D01*
X168802317Y-73200000D01*
X168450000Y-73200000D01*
X168450000Y-74000000D01*
X168434174Y-74000000D01*
X168307007Y-74034075D01*
X168192993Y-74099901D01*
X168099901Y-74192993D01*
X168034075Y-74307007D01*
X168000000Y-74434174D01*
X168000000Y-74565826D01*
X168034075Y-74692993D01*
X168066988Y-74750000D01*
X166423391Y-74750000D01*
X149950373Y-74750000D01*
X149980500Y-74598541D01*
X149980500Y-74401459D01*
X149980500Y-74401456D01*
X149950373Y-74250000D01*
X166423391Y-74250000D01*
X167950000Y-74250000D01*
X167950000Y-73200000D01*
X167597683Y-73200000D01*
X167395582Y-73232009D01*
X167200968Y-73295244D01*
X167018650Y-73388140D01*
X166853105Y-73508417D01*
X166853104Y-73508417D01*
X166708417Y-73653104D01*
X166708417Y-73653105D01*
X166588140Y-73818650D01*
X166495244Y-74000970D01*
X166432009Y-74195586D01*
X166423391Y-74250000D01*
X149950373Y-74250000D01*
X149942052Y-74208170D01*
X149942051Y-74208169D01*
X149942051Y-74208165D01*
X149897207Y-74099901D01*
X149866635Y-74026092D01*
X149866628Y-74026079D01*
X149757139Y-73862218D01*
X149757136Y-73862214D01*
X149617785Y-73722863D01*
X149617781Y-73722860D01*
X149453920Y-73613371D01*
X149453907Y-73613364D01*
X149271839Y-73537950D01*
X149271829Y-73537947D01*
X149078543Y-73499500D01*
X149078541Y-73499500D01*
X147881459Y-73499500D01*
X147881457Y-73499500D01*
X147688170Y-73537947D01*
X147688160Y-73537950D01*
X147506092Y-73613364D01*
X147506079Y-73613371D01*
X147342218Y-73722860D01*
X147342214Y-73722863D01*
X147202863Y-73862214D01*
X147202860Y-73862218D01*
X147093371Y-74026079D01*
X147093364Y-74026092D01*
X147017950Y-74208160D01*
X147017947Y-74208170D01*
X146979500Y-74401456D01*
X146979500Y-74401459D01*
X146979500Y-74598541D01*
X146979500Y-74598543D01*
X146979499Y-74598543D01*
X139750500Y-74598543D01*
X139750500Y-67503051D01*
X139750649Y-67496967D01*
X139756340Y-67381120D01*
X139767052Y-67163068D01*
X139768245Y-67150962D01*
X139773005Y-67118872D01*
X140999500Y-67118872D01*
X140999500Y-67381127D01*
X141014752Y-67496967D01*
X141033730Y-67641116D01*
X141101602Y-67894418D01*
X141101605Y-67894428D01*
X141201953Y-68136690D01*
X141201958Y-68136700D01*
X141333075Y-68363803D01*
X141492718Y-68571851D01*
X141492726Y-68571860D01*
X141678140Y-68757274D01*
X141678148Y-68757281D01*
X141886196Y-68916924D01*
X142113299Y-69048041D01*
X142113309Y-69048046D01*
X142355571Y-69148394D01*
X142355581Y-69148398D01*
X142608884Y-69216270D01*
X142868880Y-69250500D01*
X142868887Y-69250500D01*
X143131113Y-69250500D01*
X143131120Y-69250500D01*
X143391116Y-69216270D01*
X143644419Y-69148398D01*
X143886697Y-69048043D01*
X144113803Y-68916924D01*
X144321851Y-68757282D01*
X144321855Y-68757277D01*
X144321860Y-68757274D01*
X144507274Y-68571860D01*
X144507277Y-68571855D01*
X144507282Y-68571851D01*
X144666924Y-68363803D01*
X144798043Y-68136697D01*
X144898398Y-67894419D01*
X144966270Y-67641116D01*
X145000500Y-67381120D01*
X145000500Y-67118880D01*
X145000499Y-67118872D01*
X171499500Y-67118872D01*
X171499500Y-67381127D01*
X171514752Y-67496967D01*
X171533730Y-67641116D01*
X171601602Y-67894418D01*
X171601605Y-67894428D01*
X171701953Y-68136690D01*
X171701958Y-68136700D01*
X171833075Y-68363803D01*
X171992718Y-68571851D01*
X171992726Y-68571860D01*
X172178140Y-68757274D01*
X172178148Y-68757281D01*
X172386196Y-68916924D01*
X172613299Y-69048041D01*
X172613309Y-69048046D01*
X172855571Y-69148394D01*
X172855581Y-69148398D01*
X173108884Y-69216270D01*
X173368880Y-69250500D01*
X173368887Y-69250500D01*
X173631113Y-69250500D01*
X173631120Y-69250500D01*
X173891116Y-69216270D01*
X174144419Y-69148398D01*
X174386697Y-69048043D01*
X174613803Y-68916924D01*
X174821851Y-68757282D01*
X174821855Y-68757277D01*
X174821860Y-68757274D01*
X175007274Y-68571860D01*
X175007277Y-68571855D01*
X175007282Y-68571851D01*
X175166924Y-68363803D01*
X175298043Y-68136697D01*
X175398398Y-67894419D01*
X175466270Y-67641116D01*
X175500500Y-67381120D01*
X175500500Y-67118880D01*
X175466270Y-66858884D01*
X175398398Y-66605581D01*
X175365014Y-66524985D01*
X175298046Y-66363309D01*
X175298041Y-66363299D01*
X175166924Y-66136196D01*
X175007281Y-65928148D01*
X175007274Y-65928140D01*
X174821860Y-65742726D01*
X174821851Y-65742718D01*
X174613803Y-65583075D01*
X174386700Y-65451958D01*
X174386690Y-65451953D01*
X174144428Y-65351605D01*
X174144421Y-65351603D01*
X174144419Y-65351602D01*
X173891116Y-65283730D01*
X173828020Y-65275423D01*
X173631127Y-65249500D01*
X173631120Y-65249500D01*
X173368880Y-65249500D01*
X173368872Y-65249500D01*
X173137772Y-65279926D01*
X173108884Y-65283730D01*
X172855581Y-65351602D01*
X172855571Y-65351605D01*
X172613309Y-65451953D01*
X172613299Y-65451958D01*
X172386196Y-65583075D01*
X172178148Y-65742718D01*
X171992718Y-65928148D01*
X171833075Y-66136196D01*
X171701958Y-66363299D01*
X171701953Y-66363309D01*
X171601605Y-66605571D01*
X171601602Y-66605581D01*
X171543264Y-66823305D01*
X171533730Y-66858885D01*
X171499500Y-67118872D01*
X145000499Y-67118872D01*
X144966270Y-66858884D01*
X144898398Y-66605581D01*
X144865014Y-66524985D01*
X144798046Y-66363309D01*
X144798041Y-66363299D01*
X144666924Y-66136196D01*
X144507281Y-65928148D01*
X144507274Y-65928140D01*
X144321860Y-65742726D01*
X144321851Y-65742718D01*
X144113803Y-65583075D01*
X143886700Y-65451958D01*
X143886690Y-65451953D01*
X143644428Y-65351605D01*
X143644421Y-65351603D01*
X143644419Y-65351602D01*
X143391116Y-65283730D01*
X143328020Y-65275423D01*
X143131127Y-65249500D01*
X143131120Y-65249500D01*
X142868880Y-65249500D01*
X142868872Y-65249500D01*
X142637772Y-65279926D01*
X142608884Y-65283730D01*
X142355581Y-65351602D01*
X142355571Y-65351605D01*
X142113309Y-65451953D01*
X142113299Y-65451958D01*
X141886196Y-65583075D01*
X141678148Y-65742718D01*
X141492718Y-65928148D01*
X141333075Y-66136196D01*
X141201958Y-66363299D01*
X141201953Y-66363309D01*
X141101605Y-66605571D01*
X141101602Y-66605581D01*
X141043264Y-66823305D01*
X141033730Y-66858885D01*
X140999500Y-67118872D01*
X139773005Y-67118872D01*
X139816849Y-66823296D01*
X139819218Y-66811385D01*
X139899710Y-66490043D01*
X139903240Y-66478411D01*
X139944424Y-66363309D01*
X140014835Y-66166525D01*
X140019476Y-66155318D01*
X140161124Y-65855828D01*
X140166840Y-65845136D01*
X140337145Y-65560998D01*
X140343888Y-65550905D01*
X140541232Y-65284818D01*
X140548935Y-65275433D01*
X140771405Y-65029975D01*
X140779975Y-65021405D01*
X141025433Y-64798935D01*
X141034818Y-64791232D01*
X141300905Y-64593888D01*
X141310998Y-64587145D01*
X141595136Y-64416840D01*
X141605828Y-64411124D01*
X141905318Y-64269476D01*
X141916525Y-64264835D01*
X142228412Y-64153239D01*
X142240043Y-64149710D01*
X142561385Y-64069218D01*
X142573296Y-64066849D01*
X142900962Y-64018244D01*
X142913068Y-64017052D01*
X143246967Y-64000648D01*
X143253051Y-64000500D01*
X143315892Y-64000500D01*
X173184108Y-64000500D01*
X173246949Y-64000500D01*
X173253032Y-64000648D01*
G37*
%TD.AperFunction*%
%TD*%
M02*
