%TF.GenerationSoftware,KiCad,Pcbnew,8.0.8*%
%TF.CreationDate,2026-04-02T21:28:19-04:00*%
%TF.ProjectId,FELT,46454c54-2e6b-4696-9361-645f70636258,rev?*%
%TF.SameCoordinates,Original*%
%TF.FileFunction,Copper,L1,Top*%
%TF.FilePolarity,Positive*%
%FSLAX46Y46*%
G04 Gerber Fmt 4.6, Leading zero omitted, Abs format (unit mm)*
G04 Created by KiCad (PCBNEW 8.0.8) date 2026-04-02 21:28:19*
%MOMM*%
%LPD*%
G01*
G04 APERTURE LIST*
G04 Aperture macros list*
%AMRoundRect*
0 Rectangle with rounded corners*
0 $1 Rounding radius*
0 $2 $3 $4 $5 $6 $7 $8 $9 X,Y pos of 4 corners*
0 Add a 4 corners polygon primitive as box body*
4,1,4,$2,$3,$4,$5,$6,$7,$8,$9,$2,$3,0*
0 Add four circle primitives for the rounded corners*
1,1,$1+$1,$2,$3*
1,1,$1+$1,$4,$5*
1,1,$1+$1,$6,$7*
1,1,$1+$1,$8,$9*
0 Add four rect primitives between the rounded corners*
20,1,$1+$1,$2,$3,$4,$5,0*
20,1,$1+$1,$4,$5,$6,$7,0*
20,1,$1+$1,$6,$7,$8,$9,0*
20,1,$1+$1,$8,$9,$2,$3,0*%
G04 Aperture macros list end*
%TA.AperFunction,ComponentPad*%
%ADD10R,1.665000X1.665000*%
%TD*%
%TA.AperFunction,ComponentPad*%
%ADD11C,1.665000*%
%TD*%
%TA.AperFunction,ComponentPad*%
%ADD12C,3.048000*%
%TD*%
%TA.AperFunction,ComponentPad*%
%ADD13RoundRect,0.250000X1.050000X0.550000X-1.050000X0.550000X-1.050000X-0.550000X1.050000X-0.550000X0*%
%TD*%
%TA.AperFunction,ComponentPad*%
%ADD14O,2.600000X1.600000*%
%TD*%
%TA.AperFunction,Conductor*%
%ADD15C,0.800000*%
%TD*%
%TA.AperFunction,Conductor*%
%ADD16C,2.000000*%
%TD*%
%TA.AperFunction,Conductor*%
%ADD17C,0.400000*%
%TD*%
%TA.AperFunction,Conductor*%
%ADD18C,0.200000*%
%TD*%
G04 APERTURE END LIST*
D10*
%TO.P,IC1,1,VIN*%
%TO.N,+3V3*%
X165870000Y-123265000D03*
D11*
%TO.P,IC1,2,3VA*%
%TO.N,unconnected-(IC1-3VA-Pad2)*%
X163330000Y-123265000D03*
%TO.P,IC1,3,GND*%
%TO.N,GND*%
X160790000Y-123265000D03*
%TO.P,IC1,4,SCK*%
%TO.N,/SCL*%
X158250000Y-123265000D03*
%TO.P,IC1,5,SDO*%
%TO.N,unconnected-(IC1-SDO-Pad5)*%
X155710000Y-123265000D03*
%TO.P,IC1,6,SDI*%
%TO.N,/SDA*%
X153170000Y-123265000D03*
%TO.P,IC1,7,CS*%
%TO.N,unconnected-(IC1-CS-Pad7)*%
X150630000Y-123265000D03*
D12*
%TO.P,IC1,MH1,MH1*%
%TO.N,unconnected-(IC1-PadMH1)*%
X164600000Y-137235000D03*
%TO.P,IC1,MH2,MH2*%
%TO.N,unconnected-(IC1-PadMH2)*%
X151900000Y-137235000D03*
%TD*%
D13*
%TO.P,A1,1,~{RESET}*%
%TO.N,unconnected-(A1-~{RESET}-Pad1)*%
X168200000Y-112600000D03*
D14*
%TO.P,A1,2,3V3*%
%TO.N,+3V3*%
X168200000Y-110060000D03*
%TO.P,A1,3,AREF*%
%TO.N,unconnected-(A1-AREF-Pad3)*%
X168200000Y-107520000D03*
%TO.P,A1,4,GND*%
%TO.N,GND*%
X168200000Y-104980000D03*
%TO.P,A1,5,DAC0/A0*%
%TO.N,unconnected-(A1-DAC0{slash}A0-Pad5)*%
X168200000Y-102440000D03*
%TO.P,A1,6,A1*%
%TO.N,unconnected-(A1-A1-Pad6)*%
X168200000Y-99900000D03*
%TO.P,A1,7,A2*%
%TO.N,unconnected-(A1-A2-Pad7)*%
X168200000Y-97360000D03*
%TO.P,A1,8,A3*%
%TO.N,unconnected-(A1-A3-Pad8)*%
X168200000Y-94820000D03*
%TO.P,A1,9,A4*%
%TO.N,unconnected-(A1-A4-Pad9)*%
X168200000Y-92280000D03*
%TO.P,A1,10,A5*%
%TO.N,unconnected-(A1-A5-Pad10)*%
X168200000Y-89740000D03*
%TO.P,A1,11,SCK/D24*%
%TO.N,unconnected-(A1-SCK{slash}D24-Pad11)*%
X168200000Y-87200000D03*
%TO.P,A1,12,MOSI/D23*%
%TO.N,unconnected-(A1-MOSI{slash}D23-Pad12)*%
X168200000Y-84660000D03*
%TO.P,A1,13,MISO/D22*%
%TO.N,unconnected-(A1-MISO{slash}D22-Pad13)*%
X168200000Y-82120000D03*
%TO.P,A1,14,RX/D0*%
%TO.N,unconnected-(A1-RX{slash}D0-Pad14)*%
X168200000Y-79580000D03*
%TO.P,A1,15,TX/D1*%
%TO.N,unconnected-(A1-TX{slash}D1-Pad15)*%
X168200000Y-77040000D03*
%TO.P,A1,16,GND*%
%TO.N,GND*%
X168200000Y-74500000D03*
%TO.P,A1,17,SDA/D20*%
%TO.N,/SDA*%
X148480000Y-74500000D03*
%TO.P,A1,18,SCL/D21*%
%TO.N,/SCL*%
X148480000Y-77040000D03*
%TO.P,A1,19,D5*%
%TO.N,unconnected-(A1-D5-Pad19)*%
X148480000Y-79580000D03*
%TO.P,A1,20,D6*%
%TO.N,unconnected-(A1-D6-Pad20)*%
X148480000Y-82120000D03*
%TO.P,A1,21,D9*%
%TO.N,unconnected-(A1-D9-Pad21)*%
X148480000Y-84660000D03*
%TO.P,A1,22,D10*%
%TO.N,unconnected-(A1-D10-Pad22)*%
X148480000Y-87200000D03*
%TO.P,A1,23,D11*%
%TO.N,unconnected-(A1-D11-Pad23)*%
X148480000Y-89740000D03*
%TO.P,A1,24,D12*%
%TO.N,unconnected-(A1-D12-Pad24)*%
X148480000Y-92280000D03*
%TO.P,A1,25,D13*%
%TO.N,unconnected-(A1-D13-Pad25)*%
X148480000Y-94820000D03*
%TO.P,A1,26,USB*%
%TO.N,unconnected-(A1-USB-Pad26)*%
X148480000Y-97360000D03*
%TO.P,A1,27,EN*%
%TO.N,unconnected-(A1-EN-Pad27)*%
X148480000Y-99900000D03*
%TO.P,A1,28,VBAT*%
%TO.N,unconnected-(A1-VBAT-Pad28)*%
X148480000Y-102440000D03*
%TD*%
D15*
%TO.N,/SCL*%
X158250000Y-81750000D02*
X153540000Y-77040000D01*
X153540000Y-77040000D02*
X148180000Y-77040000D01*
X158250000Y-123265000D02*
X158250000Y-81750000D01*
%TO.N,/SDA*%
X147000000Y-74500000D02*
X148180000Y-74500000D01*
X153170000Y-118670000D02*
X145500000Y-111000000D01*
X145500000Y-76000000D02*
X147000000Y-74500000D01*
X153170000Y-123265000D02*
X153170000Y-118670000D01*
X145500000Y-111000000D02*
X145500000Y-76000000D01*
D16*
%TO.N,+3V3*%
X164500000Y-112250000D02*
X166690000Y-110060000D01*
D17*
X168500000Y-110002944D02*
X168500000Y-109960000D01*
D16*
X165870000Y-119620000D02*
X164500000Y-118250000D01*
D18*
X168040000Y-109960000D02*
X168500000Y-109960000D01*
D16*
X166690000Y-110060000D02*
X168500000Y-110060000D01*
X164500000Y-118250000D02*
X164500000Y-112250000D01*
X165870000Y-123265000D02*
X165870000Y-119620000D01*
%TD*%
M02*
