%TF.GenerationSoftware,KiCad,Pcbnew,8.0.8*%
%TF.CreationDate,2026-04-02T21:28:19-04:00*%
%TF.ProjectId,FELT,46454c54-2e6b-4696-9361-645f70636258,rev?*%
%TF.SameCoordinates,Original*%
%TF.FileFunction,Legend,Top*%
%TF.FilePolarity,Positive*%
%FSLAX46Y46*%
G04 Gerber Fmt 4.6, Leading zero omitted, Abs format (unit mm)*
G04 Created by KiCad (PCBNEW 8.0.8) date 2026-04-02 21:28:19*
%MOMM*%
%LPD*%
G01*
G04 APERTURE LIST*
%ADD10C,0.250000*%
%ADD11C,0.150000*%
%ADD12C,0.300000*%
%ADD13C,0.100000*%
%ADD14C,0.120000*%
G04 APERTURE END LIST*
D10*
X142090809Y-101597431D02*
X142090809Y-101264098D01*
X142614619Y-101121241D02*
X142614619Y-101597431D01*
X142614619Y-101597431D02*
X141614619Y-101597431D01*
X141614619Y-101597431D02*
X141614619Y-101121241D01*
X141947952Y-100787907D02*
X142614619Y-100549812D01*
X142614619Y-100549812D02*
X141947952Y-100311717D01*
X142614619Y-99502193D02*
X142090809Y-99502193D01*
X142090809Y-99502193D02*
X141995571Y-99549812D01*
X141995571Y-99549812D02*
X141947952Y-99645050D01*
X141947952Y-99645050D02*
X141947952Y-99835526D01*
X141947952Y-99835526D02*
X141995571Y-99930764D01*
X142567000Y-99502193D02*
X142614619Y-99597431D01*
X142614619Y-99597431D02*
X142614619Y-99835526D01*
X142614619Y-99835526D02*
X142567000Y-99930764D01*
X142567000Y-99930764D02*
X142471761Y-99978383D01*
X142471761Y-99978383D02*
X142376523Y-99978383D01*
X142376523Y-99978383D02*
X142281285Y-99930764D01*
X142281285Y-99930764D02*
X142233666Y-99835526D01*
X142233666Y-99835526D02*
X142233666Y-99597431D01*
X142233666Y-99597431D02*
X142186047Y-99502193D01*
X141947952Y-99026002D02*
X142614619Y-99026002D01*
X142043190Y-99026002D02*
X141995571Y-98978383D01*
X141995571Y-98978383D02*
X141947952Y-98883145D01*
X141947952Y-98883145D02*
X141947952Y-98740288D01*
X141947952Y-98740288D02*
X141995571Y-98645050D01*
X141995571Y-98645050D02*
X142090809Y-98597431D01*
X142090809Y-98597431D02*
X142614619Y-98597431D01*
X142614619Y-97359335D02*
X141614619Y-97359335D01*
X142614619Y-96787907D02*
X142043190Y-97216478D01*
X141614619Y-96787907D02*
X142186047Y-97359335D01*
X142614619Y-96359335D02*
X141947952Y-96359335D01*
X142138428Y-96359335D02*
X142043190Y-96311716D01*
X142043190Y-96311716D02*
X141995571Y-96264097D01*
X141995571Y-96264097D02*
X141947952Y-96168859D01*
X141947952Y-96168859D02*
X141947952Y-96073621D01*
X142614619Y-95597430D02*
X142567000Y-95692668D01*
X142567000Y-95692668D02*
X142519380Y-95740287D01*
X142519380Y-95740287D02*
X142424142Y-95787906D01*
X142424142Y-95787906D02*
X142138428Y-95787906D01*
X142138428Y-95787906D02*
X142043190Y-95740287D01*
X142043190Y-95740287D02*
X141995571Y-95692668D01*
X141995571Y-95692668D02*
X141947952Y-95597430D01*
X141947952Y-95597430D02*
X141947952Y-95454573D01*
X141947952Y-95454573D02*
X141995571Y-95359335D01*
X141995571Y-95359335D02*
X142043190Y-95311716D01*
X142043190Y-95311716D02*
X142138428Y-95264097D01*
X142138428Y-95264097D02*
X142424142Y-95264097D01*
X142424142Y-95264097D02*
X142519380Y-95311716D01*
X142519380Y-95311716D02*
X142567000Y-95359335D01*
X142567000Y-95359335D02*
X142614619Y-95454573D01*
X142614619Y-95454573D02*
X142614619Y-95597430D01*
X141947952Y-94930763D02*
X141947952Y-94406954D01*
X141947952Y-94406954D02*
X142614619Y-94930763D01*
X142614619Y-94930763D02*
X142614619Y-94406954D01*
D11*
X153857142Y-70169104D02*
X154333332Y-70169104D01*
X153761904Y-70454819D02*
X154095237Y-69454819D01*
X154095237Y-69454819D02*
X154428570Y-70454819D01*
X155190475Y-70454819D02*
X155190475Y-69454819D01*
X155190475Y-70407200D02*
X155095237Y-70454819D01*
X155095237Y-70454819D02*
X154904761Y-70454819D01*
X154904761Y-70454819D02*
X154809523Y-70407200D01*
X154809523Y-70407200D02*
X154761904Y-70359580D01*
X154761904Y-70359580D02*
X154714285Y-70264342D01*
X154714285Y-70264342D02*
X154714285Y-69978628D01*
X154714285Y-69978628D02*
X154761904Y-69883390D01*
X154761904Y-69883390D02*
X154809523Y-69835771D01*
X154809523Y-69835771D02*
X154904761Y-69788152D01*
X154904761Y-69788152D02*
X155095237Y-69788152D01*
X155095237Y-69788152D02*
X155190475Y-69835771D01*
X156095237Y-70454819D02*
X156095237Y-69931009D01*
X156095237Y-69931009D02*
X156047618Y-69835771D01*
X156047618Y-69835771D02*
X155952380Y-69788152D01*
X155952380Y-69788152D02*
X155761904Y-69788152D01*
X155761904Y-69788152D02*
X155666666Y-69835771D01*
X156095237Y-70407200D02*
X155999999Y-70454819D01*
X155999999Y-70454819D02*
X155761904Y-70454819D01*
X155761904Y-70454819D02*
X155666666Y-70407200D01*
X155666666Y-70407200D02*
X155619047Y-70311961D01*
X155619047Y-70311961D02*
X155619047Y-70216723D01*
X155619047Y-70216723D02*
X155666666Y-70121485D01*
X155666666Y-70121485D02*
X155761904Y-70073866D01*
X155761904Y-70073866D02*
X155999999Y-70073866D01*
X155999999Y-70073866D02*
X156095237Y-70026247D01*
X156428571Y-69788152D02*
X156809523Y-69788152D01*
X156571428Y-70454819D02*
X156571428Y-69597676D01*
X156571428Y-69597676D02*
X156619047Y-69502438D01*
X156619047Y-69502438D02*
X156714285Y-69454819D01*
X156714285Y-69454819D02*
X156809523Y-69454819D01*
X157142857Y-70454819D02*
X157142857Y-69788152D01*
X157142857Y-69978628D02*
X157190476Y-69883390D01*
X157190476Y-69883390D02*
X157238095Y-69835771D01*
X157238095Y-69835771D02*
X157333333Y-69788152D01*
X157333333Y-69788152D02*
X157428571Y-69788152D01*
X158190476Y-69788152D02*
X158190476Y-70454819D01*
X157761905Y-69788152D02*
X157761905Y-70311961D01*
X157761905Y-70311961D02*
X157809524Y-70407200D01*
X157809524Y-70407200D02*
X157904762Y-70454819D01*
X157904762Y-70454819D02*
X158047619Y-70454819D01*
X158047619Y-70454819D02*
X158142857Y-70407200D01*
X158142857Y-70407200D02*
X158190476Y-70359580D01*
X158666667Y-70454819D02*
X158666667Y-69788152D01*
X158666667Y-69454819D02*
X158619048Y-69502438D01*
X158619048Y-69502438D02*
X158666667Y-69550057D01*
X158666667Y-69550057D02*
X158714286Y-69502438D01*
X158714286Y-69502438D02*
X158666667Y-69454819D01*
X158666667Y-69454819D02*
X158666667Y-69550057D01*
X159000000Y-69788152D02*
X159380952Y-69788152D01*
X159142857Y-69454819D02*
X159142857Y-70311961D01*
X159142857Y-70311961D02*
X159190476Y-70407200D01*
X159190476Y-70407200D02*
X159285714Y-70454819D01*
X159285714Y-70454819D02*
X159380952Y-70454819D01*
X160476191Y-70454819D02*
X160476191Y-69454819D01*
X160476191Y-69454819D02*
X160809524Y-70169104D01*
X160809524Y-70169104D02*
X161142857Y-69454819D01*
X161142857Y-69454819D02*
X161142857Y-70454819D01*
X161809524Y-69454819D02*
X161904762Y-69454819D01*
X161904762Y-69454819D02*
X162000000Y-69502438D01*
X162000000Y-69502438D02*
X162047619Y-69550057D01*
X162047619Y-69550057D02*
X162095238Y-69645295D01*
X162095238Y-69645295D02*
X162142857Y-69835771D01*
X162142857Y-69835771D02*
X162142857Y-70073866D01*
X162142857Y-70073866D02*
X162095238Y-70264342D01*
X162095238Y-70264342D02*
X162047619Y-70359580D01*
X162047619Y-70359580D02*
X162000000Y-70407200D01*
X162000000Y-70407200D02*
X161904762Y-70454819D01*
X161904762Y-70454819D02*
X161809524Y-70454819D01*
X161809524Y-70454819D02*
X161714286Y-70407200D01*
X161714286Y-70407200D02*
X161666667Y-70359580D01*
X161666667Y-70359580D02*
X161619048Y-70264342D01*
X161619048Y-70264342D02*
X161571429Y-70073866D01*
X161571429Y-70073866D02*
X161571429Y-69835771D01*
X161571429Y-69835771D02*
X161619048Y-69645295D01*
X161619048Y-69645295D02*
X161666667Y-69550057D01*
X161666667Y-69550057D02*
X161714286Y-69502438D01*
X161714286Y-69502438D02*
X161809524Y-69454819D01*
D12*
X173734885Y-92804510D02*
X173734885Y-92304510D01*
X172949171Y-92304510D02*
X174449171Y-92304510D01*
X174449171Y-92304510D02*
X174449171Y-93018796D01*
X173734885Y-93590224D02*
X173734885Y-94090224D01*
X172949171Y-94304510D02*
X172949171Y-93590224D01*
X172949171Y-93590224D02*
X174449171Y-93590224D01*
X174449171Y-93590224D02*
X174449171Y-94304510D01*
X172949171Y-95661653D02*
X172949171Y-94947367D01*
X172949171Y-94947367D02*
X174449171Y-94947367D01*
X174449171Y-95947368D02*
X174449171Y-96804511D01*
X172949171Y-96375939D02*
X174449171Y-96375939D01*
X173520600Y-98447367D02*
X173520600Y-99590225D01*
X174449171Y-101233082D02*
X172949171Y-101733082D01*
X172949171Y-101733082D02*
X174449171Y-102233082D01*
X172949171Y-103518796D02*
X172949171Y-102661653D01*
X172949171Y-103090224D02*
X174449171Y-103090224D01*
X174449171Y-103090224D02*
X174234885Y-102947367D01*
X174234885Y-102947367D02*
X174092028Y-102804510D01*
X174092028Y-102804510D02*
X174020600Y-102661653D01*
X173092028Y-104161652D02*
X173020600Y-104233081D01*
X173020600Y-104233081D02*
X172949171Y-104161652D01*
X172949171Y-104161652D02*
X173020600Y-104090224D01*
X173020600Y-104090224D02*
X173092028Y-104161652D01*
X173092028Y-104161652D02*
X172949171Y-104161652D01*
X174449171Y-105161653D02*
X174449171Y-105304510D01*
X174449171Y-105304510D02*
X174377742Y-105447367D01*
X174377742Y-105447367D02*
X174306314Y-105518796D01*
X174306314Y-105518796D02*
X174163457Y-105590224D01*
X174163457Y-105590224D02*
X173877742Y-105661653D01*
X173877742Y-105661653D02*
X173520600Y-105661653D01*
X173520600Y-105661653D02*
X173234885Y-105590224D01*
X173234885Y-105590224D02*
X173092028Y-105518796D01*
X173092028Y-105518796D02*
X173020600Y-105447367D01*
X173020600Y-105447367D02*
X172949171Y-105304510D01*
X172949171Y-105304510D02*
X172949171Y-105161653D01*
X172949171Y-105161653D02*
X173020600Y-105018796D01*
X173020600Y-105018796D02*
X173092028Y-104947367D01*
X173092028Y-104947367D02*
X173234885Y-104875938D01*
X173234885Y-104875938D02*
X173520600Y-104804510D01*
X173520600Y-104804510D02*
X173877742Y-104804510D01*
X173877742Y-104804510D02*
X174163457Y-104875938D01*
X174163457Y-104875938D02*
X174306314Y-104947367D01*
X174306314Y-104947367D02*
X174377742Y-105018796D01*
X174377742Y-105018796D02*
X174449171Y-105161653D01*
D11*
X155583333Y-130704819D02*
X155583333Y-129704819D01*
X155583333Y-129704819D02*
X155821428Y-129704819D01*
X155821428Y-129704819D02*
X155964285Y-129752438D01*
X155964285Y-129752438D02*
X156059523Y-129847676D01*
X156059523Y-129847676D02*
X156107142Y-129942914D01*
X156107142Y-129942914D02*
X156154761Y-130133390D01*
X156154761Y-130133390D02*
X156154761Y-130276247D01*
X156154761Y-130276247D02*
X156107142Y-130466723D01*
X156107142Y-130466723D02*
X156059523Y-130561961D01*
X156059523Y-130561961D02*
X155964285Y-130657200D01*
X155964285Y-130657200D02*
X155821428Y-130704819D01*
X155821428Y-130704819D02*
X155583333Y-130704819D01*
X156583333Y-130704819D02*
X156583333Y-129704819D01*
X156583333Y-129704819D02*
X156964285Y-129704819D01*
X156964285Y-129704819D02*
X157059523Y-129752438D01*
X157059523Y-129752438D02*
X157107142Y-129800057D01*
X157107142Y-129800057D02*
X157154761Y-129895295D01*
X157154761Y-129895295D02*
X157154761Y-130038152D01*
X157154761Y-130038152D02*
X157107142Y-130133390D01*
X157107142Y-130133390D02*
X157059523Y-130181009D01*
X157059523Y-130181009D02*
X156964285Y-130228628D01*
X156964285Y-130228628D02*
X156583333Y-130228628D01*
X157535714Y-130657200D02*
X157678571Y-130704819D01*
X157678571Y-130704819D02*
X157916666Y-130704819D01*
X157916666Y-130704819D02*
X158011904Y-130657200D01*
X158011904Y-130657200D02*
X158059523Y-130609580D01*
X158059523Y-130609580D02*
X158107142Y-130514342D01*
X158107142Y-130514342D02*
X158107142Y-130419104D01*
X158107142Y-130419104D02*
X158059523Y-130323866D01*
X158059523Y-130323866D02*
X158011904Y-130276247D01*
X158011904Y-130276247D02*
X157916666Y-130228628D01*
X157916666Y-130228628D02*
X157726190Y-130181009D01*
X157726190Y-130181009D02*
X157630952Y-130133390D01*
X157630952Y-130133390D02*
X157583333Y-130085771D01*
X157583333Y-130085771D02*
X157535714Y-129990533D01*
X157535714Y-129990533D02*
X157535714Y-129895295D01*
X157535714Y-129895295D02*
X157583333Y-129800057D01*
X157583333Y-129800057D02*
X157630952Y-129752438D01*
X157630952Y-129752438D02*
X157726190Y-129704819D01*
X157726190Y-129704819D02*
X157964285Y-129704819D01*
X157964285Y-129704819D02*
X158107142Y-129752438D01*
X158440476Y-129704819D02*
X159059523Y-129704819D01*
X159059523Y-129704819D02*
X158726190Y-130085771D01*
X158726190Y-130085771D02*
X158869047Y-130085771D01*
X158869047Y-130085771D02*
X158964285Y-130133390D01*
X158964285Y-130133390D02*
X159011904Y-130181009D01*
X159011904Y-130181009D02*
X159059523Y-130276247D01*
X159059523Y-130276247D02*
X159059523Y-130514342D01*
X159059523Y-130514342D02*
X159011904Y-130609580D01*
X159011904Y-130609580D02*
X158964285Y-130657200D01*
X158964285Y-130657200D02*
X158869047Y-130704819D01*
X158869047Y-130704819D02*
X158583333Y-130704819D01*
X158583333Y-130704819D02*
X158488095Y-130657200D01*
X158488095Y-130657200D02*
X158440476Y-130609580D01*
X160011904Y-130704819D02*
X159440476Y-130704819D01*
X159726190Y-130704819D02*
X159726190Y-129704819D01*
X159726190Y-129704819D02*
X159630952Y-129847676D01*
X159630952Y-129847676D02*
X159535714Y-129942914D01*
X159535714Y-129942914D02*
X159440476Y-129990533D01*
X160630952Y-129704819D02*
X160726190Y-129704819D01*
X160726190Y-129704819D02*
X160821428Y-129752438D01*
X160821428Y-129752438D02*
X160869047Y-129800057D01*
X160869047Y-129800057D02*
X160916666Y-129895295D01*
X160916666Y-129895295D02*
X160964285Y-130085771D01*
X160964285Y-130085771D02*
X160964285Y-130323866D01*
X160964285Y-130323866D02*
X160916666Y-130514342D01*
X160916666Y-130514342D02*
X160869047Y-130609580D01*
X160869047Y-130609580D02*
X160821428Y-130657200D01*
X160821428Y-130657200D02*
X160726190Y-130704819D01*
X160726190Y-130704819D02*
X160630952Y-130704819D01*
X160630952Y-130704819D02*
X160535714Y-130657200D01*
X160535714Y-130657200D02*
X160488095Y-130609580D01*
X160488095Y-130609580D02*
X160440476Y-130514342D01*
X160440476Y-130514342D02*
X160392857Y-130323866D01*
X160392857Y-130323866D02*
X160392857Y-130085771D01*
X160392857Y-130085771D02*
X160440476Y-129895295D01*
X160440476Y-129895295D02*
X160488095Y-129800057D01*
X160488095Y-129800057D02*
X160535714Y-129752438D01*
X160535714Y-129752438D02*
X160630952Y-129704819D01*
D13*
%TO.C,IC1*%
X149360000Y-120725000D02*
X167140000Y-120725000D01*
X149360000Y-139775000D02*
X149360000Y-120725000D01*
X167140000Y-120725000D02*
X167140000Y-139775000D01*
X167140000Y-139775000D02*
X149360000Y-139775000D01*
D14*
%TO.C,A1*%
X146800000Y-116410000D02*
X146800000Y-70690000D01*
X149450000Y-68040000D02*
X167230000Y-68040000D01*
X149450000Y-119060000D02*
X167230000Y-119060000D01*
X169880000Y-116410000D02*
X169880000Y-70690000D01*
X170200000Y-111600000D02*
X170200000Y-113600000D01*
X146800000Y-70690000D02*
G75*
G02*
X149450000Y-68040000I2650000J0D01*
G01*
X149450000Y-119060000D02*
G75*
G02*
X146800000Y-116410000I0J2650000D01*
G01*
X167230000Y-68040000D02*
G75*
G02*
X169880000Y-70690000I0J-2650000D01*
G01*
X169880000Y-116410000D02*
G75*
G02*
X167230000Y-119060000I-2650000J0D01*
G01*
%TD*%
M02*
